<?xml version="1.0" encoding="UTF-8"?>
<svg version="1.1" xmlns="http://www.w3.org/2000/svg" width="688" height="897">
<path d="M0 0 C227.04 0 454.08 0 688 0 C688 296.01 688 592.02 688 897 C460.96 897 233.92 897 0 897 C0 600.99 0 304.98 0 0 Z " fill="#FDFEFE" transform="translate(0,0)"/>
<path d="M0 0 C151.14 0 302.28 0 458 0 C458 84.15 458 168.3 458 255 C306.86 255 155.72 255 0 255 C0 170.85 0 86.7 0 0 Z " fill="#FFFFFF" transform="translate(55,426)"/>
<path d="M0 0 C198.66 0 397.32 0 602 0 C602 91.74 602 183.48 602 278 C554.81 278 507.62 278 459 278 C459 271.07 459 264.14 459 257 C307.53 257 156.06 257 0 257 C0 172.19 0 87.38 0 0 Z M1 1 C1 85.15 1 169.3 1 256 C152.14 256 303.28 256 459 256 C459 171.85 459 87.7 459 1 C307.86 1 156.72 1 1 1 Z " fill="#F1F1F1" transform="translate(54,425)"/>
<path d="M0 0 C227.04 0 454.08 0 688 0 C688 296.01 688 592.02 688 897 C460.96 897 233.92 897 0 897 C0 600.99 0 304.98 0 0 Z M10 10 C10 296.11 10 582.22 10 877 C230.77 877 451.54 877 679 877 C679 590.89 679 304.78 679 10 C458.23 10 237.46 10 10 10 Z " fill="#EDEDED" transform="translate(0,0)"/>
<path d="M0 0 C46.53 0 93.06 0 141 0 C141 6.6 141 13.2 141 20 C94.47 20 47.94 20 0 20 C0 13.4 0 6.8 0 0 Z " fill="#FFFFFF" transform="translate(514,682)"/>
<path d="M0 0 C198.66 0 397.32 0 602 0 C602 91.74 602 183.48 602 278 C554.81 278 507.62 278 459 278 C459 271.07 459 264.14 459 257 C307.53 257 156.06 257 0 257 C0 172.19 0 87.38 0 0 Z M1 1 C1 85.15 1 169.3 1 256 C152.14 256 303.28 256 459 256 C459 171.85 459 87.7 459 1 C307.86 1 156.72 1 1 1 Z M460 1 C460 85.15 460 169.3 460 256 C506.53 256 553.06 256 601 256 C601 171.85 601 87.7 601 1 C554.47 1 507.94 1 460 1 Z M460 257 C460 263.6 460 270.2 460 277 C506.53 277 553.06 277 601 277 C601 270.4 601 263.8 601 257 C554.47 257 507.94 257 460 257 Z " fill="#BFBFBF" transform="translate(54,425)"/>
<path d="M0 0 C3.5060303 0.86943897 4.94966563 2.56083702 6.9375 5.48046875 C7.5 9.04296875 7.5 9.04296875 6.9375 12.48046875 C4.13412859 16.03140587 2.10366338 17.32644717 -2.375 17.91796875 C-6.0625 17.48046875 -6.0625 17.48046875 -9 14.85546875 C-11.25068265 11.1725335 -11.95676216 9.68350089 -11.0625 5.48046875 C-7.96739703 1.03125823 -5.27006603 -0.36930387 0 0 Z " fill="#636363" transform="translate(187.0625,55.51953125)"/>
<path d="M0 0 C1.32 0 2.64 0 4 0 C4.99 2.64 5.98 5.28 7 8 C8.77706209 5.33440687 9.87548273 2.9719385 11 0 C12.32 0 13.64 0 15 0 C16.5056904 5.80766296 17.21824777 10.9981863 17 17 C16.01 17 15.02 17 14 17 C13.34 14.36 12.68 11.72 12 9 C11.01 11.64 10.02 14.28 9 17 C7.68 16.67 6.36 16.34 5 16 C3.75 12.9375 3.75 12.9375 3 10 C2.34 12.31 1.68 14.62 1 17 C0.01 17 -0.98 17 -2 17 C-1.85848172 14.9163691 -1.71162064 12.83310062 -1.5625 10.75 C-1.48128906 9.58984375 -1.40007812 8.4296875 -1.31640625 7.234375 C-1.06752213 4.69022624 -0.71885058 2.44046752 0 0 Z " fill="#6A6A6A" transform="translate(266,56)"/>
<path d="M0 0 C1.32 0 2.64 0 4 0 C4.99 2.64 5.98 5.28 7 8 C8.77706209 5.33440687 9.87548273 2.9719385 11 0 C12.32 0 13.64 0 15 0 C16.5056904 5.80766296 17.21824777 10.9981863 17 17 C16.01 17 15.02 17 14 17 C13.34 14.36 12.68 11.72 12 9 C11.01 11.64 10.02 14.28 9 17 C7.68 16.67 6.36 16.34 5 16 C3.75 12.9375 3.75 12.9375 3 10 C2.34 12.31 1.68 14.62 1 17 C0.01 17 -0.98 17 -2 17 C-1.85848172 14.9163691 -1.71162064 12.83310062 -1.5625 10.75 C-1.48128906 9.58984375 -1.40007812 8.4296875 -1.31640625 7.234375 C-1.06752213 4.69022624 -0.71885058 2.44046752 0 0 Z " fill="#6A6A6A" transform="translate(71,56)"/>
<path d="M0 0 C2.375 1 2.375 1 4 3 C4.56641498 5.77427747 4.56641498 8.22572253 4 11 C1.83222115 13.66803551 0.44273423 13.93406086 -2.9375 14.4375 C-6.80632104 13.88481128 -8.39924487 12.90672632 -11 10 C-11.625 7 -11.625 7 -11 4 C-7.6239116 0.22672473 -4.99623432 -0.74412001 0 0 Z " fill="#C2CDE0" transform="translate(399,752)"/>
<path d="M0 0 C2.375 1 2.375 1 4 3 C4.56641498 5.77427747 4.56641498 8.22572253 4 11 C1.83222115 13.66803551 0.44273423 13.93406086 -2.9375 14.4375 C-6.80632104 13.88481128 -8.39924487 12.90672632 -11 10 C-11.625 7 -11.625 7 -11 4 C-7.6239116 0.22672473 -4.99623432 -0.74412001 0 0 Z " fill="#C2CDE0" transform="translate(615,119)"/>
<path d="M0 0 C2.375 1 2.375 1 4 3 C4.56641498 5.77427747 4.56641498 8.22572253 4 11 C1.84154474 13.65656032 0.41685537 13.92904589 -2.9375 14.5 C-6 14 -6 14 -8.9375 11.875 C-11 9 -11 9 -11.0625 5.875 C-9.00220755 0.30009101 -5.72566075 -0.71570759 0 0 Z " fill="#DCDCDD" transform="translate(181,119)"/>
<path d="M0 0 C2.375 1 2.375 1 4 3 C4.56641498 5.77427747 4.56641498 8.22572253 4 11 C1.84154474 13.65656032 0.41685537 13.92904589 -2.9375 14.5 C-6 14 -6 14 -8.9375 11.875 C-11 9 -11 9 -11.0625 5.875 C-9.00220755 0.30009101 -5.72566075 -0.71570759 0 0 Z " fill="#DCDCDD" transform="translate(93,119)"/>
<path d="M0 0 C2.375 1.625 2.375 1.625 4 4 C4.61195145 7.6717087 4.48706506 9.28813568 2.375 12.375 C-0.75011169 14.51323431 -2.28162465 14.6829669 -6 14 C-8.9375 11.875 -8.9375 11.875 -11 9 C-11.07119063 5.44046851 -10.7009249 3.77880545 -8.3125 1.125 C-5.26389315 -0.35810604 -3.35257076 -0.48891657 0 0 Z " fill="#DCDCDC" transform="translate(148,119)"/>
<path d="M0 0 C1.32 0 2.64 0 4 0 C5.484375 1.75 5.484375 1.75 6.75 4 C7.17796875 4.7425 7.6059375 5.485 8.046875 6.25 C8.36140625 6.8275 8.6759375 7.405 9 8 C9.33 5.36 9.66 2.72 10 0 C11.32 0 12.64 0 14 0 C14 5.61 14 11.22 14 17 C9 16 9 16 7.41796875 13.93359375 C5.70898438 10.46679688 5.70898438 10.46679688 4 7 C3.67 10.3 3.34 13.6 3 17 C2.01 17 1.02 17 0 17 C0 11.39 0 5.78 0 0 Z " fill="#656565" transform="translate(142,56)"/>
<path d="M0 0 C3 1 3 1 4 3 C4.33 2.01 4.66 1.02 5 0 C5.66 0 6.32 0 7 0 C7.33 1.65 7.66 3.3 8 5 C8.66 3.35 9.32 1.7 10 0 C10.99 0 11.98 0 13 0 C13.99 2.31 14.98 4.62 16 7 C16.33 4.69 16.66 2.38 17 0 C17.99 0 18.98 0 20 0 C20.33 0.99 20.66 1.98 21 3 C21.66 2.01 22.32 1.02 23 0 C23.66 0 24.32 0 25 0 C25.33 2.97 25.66 5.94 26 9 C24.02 9 22.04 9 20 9 C19.67 8.34 19.34 7.68 19 7 C18.67 7.66 18.34 8.32 18 9 C14.97580475 8.41196203 11.98241547 7.77321882 9 7 C9 7.66 9 8.32 9 9 C6.5625 8.625 6.5625 8.625 4 8 C3.67 7.34 3.34 6.68 3 6 C2.67 6.99 2.34 7.98 2 9 C1.34 9 0.68 9 0 9 C0 6.03 0 3.06 0 0 Z " fill="#5674AA" transform="translate(137,166)"/>
<path d="M0 0 C1.51815699 0.00015911 3.0363194 0.00585313 4.55444336 0.01586914 C5.35208603 0.01728409 6.1497287 0.01869904 6.97154236 0.02015686 C9.52916146 0.02577223 12.08669429 0.03832727 14.64428711 0.05102539 C16.37410356 0.05603841 18.10392137 0.06060166 19.83374023 0.06469727 C24.08312264 0.07574664 28.33244023 0.09302153 32.58178711 0.11352539 C32.25178711 1.76352539 31.92178711 3.41352539 31.58178711 5.11352539 C29.60178711 5.11352539 27.62178711 5.11352539 25.58178711 5.11352539 C25.25178711 4.12352539 24.92178711 3.13352539 24.58178711 2.11352539 C24.25178711 3.10352539 23.92178711 4.09352539 23.58178711 5.11352539 C21.93178711 5.11352539 20.28178711 5.11352539 18.58178711 5.11352539 C18.25178711 4.12352539 17.92178711 3.13352539 17.58178711 2.11352539 C15.56670353 1.38028743 15.56670353 1.38028743 13.58178711 1.11352539 C13.58178711 2.10352539 13.58178711 3.09352539 13.58178711 4.11352539 C14.57178711 4.44352539 15.56178711 4.77352539 16.58178711 5.11352539 C9.91512044 5.11352539 3.24845378 5.11352539 -3.41821289 5.11352539 C-3.98071289 3.17602539 -3.98071289 3.17602539 -4.41821289 1.11352539 C-3.41821289 0.11352539 -3.41821289 0.11352539 0 0 Z " fill="#708AB7" transform="translate(311.418212890625,774.886474609375)"/>
<path d="M0 0 C1.32 0 2.64 0 4 0 C5.00419637 2.4566947 6.00350501 4.91518353 7 7.375 C7.28617187 8.07367188 7.57234375 8.77234375 7.8671875 9.4921875 C10 14.7734375 10 14.7734375 10 17 C8.68 16.67 7.36 16.34 6 16 C6 15.01 6 14.02 6 13 C3.36 13 0.72 13 -2 13 C-2.33 14.32 -2.66 15.64 -3 17 C-3.99 17 -4.98 17 -6 17 C-5.34496718 12.94180817 -4.05440879 9.46028718 -2.4375 5.6875 C-1.75494141 4.08455078 -1.75494141 4.08455078 -1.05859375 2.44921875 C-0.53458984 1.23685547 -0.53458984 1.23685547 0 0 Z " fill="#727272" transform="translate(316,56)"/>
<path d="M0 0 C0.66 0 1.32 0 2 0 C2 0.66 2 1.32 2 2 C2.99 2 3.98 2 5 2 C4.67 2.66 4.34 3.32 4 4 C3.34 3.67 2.68 3.34 2 3 C2 3.99 2 4.98 2 6 C2.66 6.33 3.32 6.66 4 7 C2.68 7 1.36 7 0 7 C-0.33 6.67 -0.66 6.34 -1 6 C-2.33599921 6.32248257 -3.66893378 6.65772583 -5 7 C-7.33333333 7 -9.66666667 7 -12 7 C-12.33 6.01 -12.66 5.02 -13 4 C-13.33 4.99 -13.66 5.98 -14 7 C-15.79158489 7.02696365 -17.58328473 7.04637917 -19.375 7.0625 C-20.37273437 7.07410156 -21.37046875 7.08570313 -22.3984375 7.09765625 C-25 7 -25 7 -27 6 C-27.33 6.99 -27.66 7.98 -28 9 C-28.66 8.67 -29.32 8.34 -30 8 C-30.625 4.9375 -30.625 4.9375 -31 2 C-29.68 2 -28.36 2 -27 2 C-25.05859111 1.98872786 -23.11718508 1.9769574 -21.17578125 1.96484375 C-18.88802156 1.95554931 -16.6002611 1.94644156 -14.3125 1.9375 C-13.14654297 1.92912109 -11.98058594 1.92074219 -10.77929688 1.91210938 C-9.11930664 1.90727539 -9.11930664 1.90727539 -7.42578125 1.90234375 C-6.40911377 1.89710693 -5.39244629 1.89187012 -4.3449707 1.88647461 C-2 2 -2 2 -1 3 C-0.67 2.01 -0.34 1.02 0 0 Z " fill="#5F7BAE" transform="translate(359,794)"/>
<path d="M0 0 C2.31 0.33 4.62 0.66 7 1 C7 1.66 7 2.32 7 3 C7.94875 2.835 8.8975 2.67 9.875 2.5 C13.60911513 1.90254158 17.21966243 2 21 2 C21.33 3.65 21.66 5.3 22 7 C20.35 7.33 18.7 7.66 17 8 C17 8.66 17 9.32 17 10 C16.34 10 15.68 10 15 10 C14.67 9.34 14.34 8.68 14 8 C12.35 8 10.7 8 9 8 C8.67 7.34 8.34 6.68 8 6 C7.34 6.66 6.68 7.32 6 8 C2.875 8.125 2.875 8.125 0 8 C0 5.36 0 2.72 0 0 Z " fill="#7F7F7F" transform="translate(148,297)"/>
<path d="M0 0 C2.4375 1 2.4375 1 4 2 C3.67 2.99 3.34 3.98 3 5 C0.98177083 4.70703125 -1.03645833 4.4140625 -3.0546875 4.12109375 C-5.08140667 3.8315703 -5.08140667 3.8315703 -7 5 C-7.04241723 7.33294775 -7.04092937 9.66702567 -7 12 C-6.67 12.33 -6.34 12.66 -6 13 C-4.47480724 12.91062197 -2.95318071 12.75462854 -1.4375 12.5625 C-0.61121094 12.46066406 0.21507812 12.35882813 1.06640625 12.25390625 C1.70449219 12.17011719 2.34257812 12.08632812 3 12 C3 13.32 3 14.64 3 16 C-0.20112717 17.60056359 -3.51940672 17.35150546 -7 17 C-9.4375 16.0625 -9.4375 16.0625 -11 14 C-11.95719242 10.93343908 -12.31965036 8.20211154 -12 5 C-8.70879436 -0.03965864 -5.84157725 -0.74347347 0 0 Z " fill="#676767" transform="translate(215,56)"/>
<path d="M0 0 C2.64 0 5.28 0 8 0 C10 2 10 2 10.25 5 C10 8 10 8 8 10 C5.375 10.125 5.375 10.125 3 10 C3 12.31 3 14.62 3 17 C2.01 17 1.02 17 0 17 C0 11.39 0 5.78 0 0 Z " fill="#6E6E6E" transform="translate(286,56)"/>
<path d="M0 0 C2.64 0 5.28 0 8 0 C10 2 10 2 10.25 5 C10 8 10 8 8 10 C5.375 10.125 5.375 10.125 3 10 C3 12.31 3 14.62 3 17 C2.01 17 1.02 17 0 17 C0 11.39 0 5.78 0 0 Z " fill="#6E6E6E" transform="translate(92,56)"/>
<path d="M0 0 C3.3 0 6.6 0 10 0 C10 0.99 10 1.98 10 3 C7.69 3 5.38 3 3 3 C3 3.99 3 4.98 3 6 C5.31 6 7.62 6 10 6 C10 6.99 10 7.98 10 9 C7.69 9 5.38 9 3 9 C3 10.65 3 12.3 3 14 C5.31 14 7.62 14 10 14 C10 14.99 10 15.98 10 17 C6.7 17 3.4 17 0 17 C0 11.39 0 5.78 0 0 Z " fill="#5E5E5E" transform="translate(339,56)"/>
<path d="M0 0 C3.3 0 6.6 0 10 0 C10 0.99 10 1.98 10 3 C7.69 3 5.38 3 3 3 C3 3.99 3 4.98 3 6 C5.31 6 7.62 6 10 6 C10 6.99 10 7.98 10 9 C7.69 9 5.38 9 3 9 C3 10.65 3 12.3 3 14 C5.31 14 7.62 14 10 14 C10 14.99 10 15.98 10 17 C6.7 17 3.4 17 0 17 C0 11.39 0 5.78 0 0 Z " fill="#5E5E5E" transform="translate(252,56)"/>
<path d="M0 0 C3.3 0 6.6 0 10 0 C10 0.99 10 1.98 10 3 C7.69 3 5.38 3 3 3 C3 3.99 3 4.98 3 6 C5.31 6 7.62 6 10 6 C10 6.99 10 7.98 10 9 C7.69 9 5.38 9 3 9 C3 10.65 3 12.3 3 14 C5.31 14 7.62 14 10 14 C10 14.99 10 15.98 10 17 C6.7 17 3.4 17 0 17 C0 11.39 0 5.78 0 0 Z " fill="#5E5E5E" transform="translate(222,56)"/>
<path d="M0 0 C3.3 0 6.6 0 10 0 C10 0.99 10 1.98 10 3 C7.69 3 5.38 3 3 3 C3 3.99 3 4.98 3 6 C5.31 6 7.62 6 10 6 C10 6.99 10 7.98 10 9 C7.69 9 5.38 9 3 9 C3 10.65 3 12.3 3 14 C5.31 14 7.62 14 10 14 C10 14.99 10 15.98 10 17 C6.7 17 3.4 17 0 17 C0 11.39 0 5.78 0 0 Z " fill="#5E5E5E" transform="translate(116,56)"/>
<path d="M0 0 C1.890625 0.24609375 1.890625 0.24609375 4 1 C5.046875 2.84765625 5.046875 2.84765625 5.75 5.0625 C5.99234375 5.79597656 6.2346875 6.52945313 6.484375 7.28515625 C6.65453125 7.85105469 6.8246875 8.41695312 7 9 C8.94268841 6.08596738 10.46395304 3.14191424 12 0 C12.99 0 13.98 0 15 0 C13.33846988 5.85659906 11.52958084 11.4590134 9 17 C7.171875 16.93359375 7.171875 16.93359375 5 16 C3.86726064 13.64211359 3.02857479 11.53288354 2.25 9.0625 C1.91935547 8.09280273 1.91935547 8.09280273 1.58203125 7.10351562 C0 2.3721613 0 2.3721613 0 0 Z " fill="#696969" transform="translate(159,56)"/>
<path d="M0 0 C0 0.99 0 1.98 0 3 C-3 3 -3 3 -5 2 C-4.48308594 2.53109375 -3.96617188 3.0621875 -3.43359375 3.609375 C-2.77488281 4.31578125 -2.11617187 5.0221875 -1.4375 5.75 C-0.44556641 6.79414062 -0.44556641 6.79414062 0.56640625 7.859375 C2 10 2 10 1.83984375 12.140625 C1 14 1 14 -1 16 C-4.125 16.125 -4.125 16.125 -7 16 C-7.66 14.68 -8.32 13.36 -9 12 C-7 12 -5 12 -3 12 C-3 11.34 -3 10.68 -3 10 C-4.95927063 8.2856382 -6.95880212 6.61594832 -9 5 C-8.625 2.5625 -8.625 2.5625 -8 0 C-5.13822943 -1.43088528 -3.06624227 -0.59991697 0 0 Z " fill="#696969" transform="translate(59,57)"/>
<path d="M0 0 C6.46153846 0.46153846 6.46153846 0.46153846 9 3 C8.8125 6 8.8125 6 8 9 C4.77856724 11.14762184 3.7404533 11.561068 0 11 C-1.875 9.3125 -1.875 9.3125 -3 7 C-2.75925978 3.62963689 -2.41201979 2.41201979 0 0 Z " fill="#F4F4F4" transform="translate(182,59)"/>
<path d="M0 0 C1.9375 1.5 1.9375 1.5 3 3 C1.68 3 0.36 3 -1 3 C-3.00401011 3.30830925 -5.00511766 3.63729412 -7 4 C-7 6.31 -7 8.62 -7 11 C-5.02 11 -3.04 11 -1 11 C-0.67 10.34 -0.34 9.68 0 9 C-1.32 9 -2.64 9 -4 9 C-4 8.34 -4 7.68 -4 7 C-1.36 7 1.28 7 4 7 C3.6875 9.375 3.6875 9.375 3 12 C-0.51253146 14.34168764 -1.86469356 14.49623677 -6 14 C-8.875 12.375 -8.875 12.375 -11 10 C-11.68551032 6.34394496 -11.48491197 4.7370662 -9.4375 1.625 C-6.1005787 -0.5996142 -3.93094707 -0.50030235 0 0 Z " fill="#DBDBDC" transform="translate(165,119)"/>
<path d="M0 0 C1.485 0.99 1.485 0.99 3 2 C3.66 1.34 4.32 0.68 5 0 C5.33 0.99 5.66 1.98 6 3 C6.33 2.01 6.66 1.02 7 0 C10 1 10 1 12 3 C12.33 2.01 12.66 1.02 13 0 C13.66 0 14.32 0 15 0 C15 0.66 15 1.32 15 2 C15.66 2 16.32 2 17 2 C17 1.34 17 0.68 17 0 C19.31 0 21.62 0 24 0 C24 0.99 24 1.98 24 3 C23.34 3 22.68 3 22 3 C22 3.66 22 4.32 22 5 C23.32 5 24.64 5 26 5 C26 5.66 26 6.32 26 7 C24.92621094 6.9278125 23.85242188 6.855625 22.74609375 6.78125 C21.30990358 6.68738136 19.87370522 6.59363805 18.4375 6.5 C17.73302734 6.45230469 17.02855469 6.40460937 16.30273438 6.35546875 C11.85739865 6.0686729 7.45455341 5.95317158 3 6 C2.67 5.34 2.34 4.68 2 4 C1.34 4.66 0.68 5.32 0 6 C0 4.02 0 2.04 0 0 Z " fill="#617DAF" transform="translate(282,785)"/>
<path d="M0 0 C6 0 6 0 8 1 C8 2.65 8 4.3 8 6 C7.34 6 6.68 6 6 6 C6.99 8.64 7.98 11.28 9 14 C7.68 13.67 6.36 13.34 5 13 C4.67 12.34 4.34 11.68 4 11 C3.67 11.99 3.34 12.98 3 14 C2.01 14 1.02 14 0 14 C0 9.38 0 4.76 0 0 Z " fill="#DEDEDE" transform="translate(113,119)"/>
<path d="M0 0 C0.99 0 1.98 0 3 0 C3 3.96 3 7.92 3 12 C3.99 12 4.98 12 6 12 C6 8.04 6 4.08 6 0 C7.32 0 8.64 0 10 0 C10.08114106 1.77007714 10.13925505 3.54122098 10.1875 5.3125 C10.22230469 6.29863281 10.25710937 7.28476563 10.29296875 8.30078125 C10 11 10 11 8.6484375 12.8359375 C6.33464771 14.46984593 4.76572542 14.35458018 2 14 C0 12 0 12 -0.1953125 9.1796875 C-0.17210938 8.08914062 -0.14890625 6.99859375 -0.125 5.875 C-0.10695313 4.77929688 -0.08890625 3.68359375 -0.0703125 2.5546875 C-0.04710938 1.71164063 -0.02390625 0.86859375 0 0 Z " fill="#DFDFE0" transform="translate(100,119)"/>
<path d="M0 0 C0.33 0.66 0.66 1.32 1 2 C3.64 2 6.28 2 9 2 C9 2.99 9 3.98 9 5 C2.50353222 6.99891316 -3.28678228 7 -10 7 C-10.33 6.01 -10.66 5.02 -11 4 C-11.99 5.485 -11.99 5.485 -13 7 C-13 5.68 -13 4.36 -13 3 C-13.66 3 -14.32 3 -15 3 C-15.33 4.32 -15.66 5.64 -16 7 C-16.33 7 -16.66 7 -17 7 C-17 5.35 -17 3.7 -17 2 C-11.39 2 -5.78 2 0 2 C0 1.34 0 0.68 0 0 Z " fill="#728BB8" transform="translate(281,732)"/>
<path d="M0 0 C1.98 0 3.96 0 6 0 C6 0.66 6 1.32 6 2 C6.66 2 7.32 2 8 2 C8 1.34 8 0.68 8 0 C8.66 0 9.32 0 10 0 C10.66 0.99 11.32 1.98 12 3 C12.33 2.01 12.66 1.02 13 0 C16 1 16 1 17 3 C17.33 2.01 17.66 1.02 18 0 C19.32 0 20.64 0 22 0 C22 1.65 22 3.3 22 5 C22.66 5.33 23.32 5.66 24 6 C18.06 6 12.12 6 6 6 C6 5.34 6 4.68 6 4 C5.34 4 4.68 4 4 4 C4 3.01 4 2.02 4 1 C3.67 1.66 3.34 2.32 3 3 C2.34 3 1.68 3 1 3 C1 3.66 1 4.32 1 5 C1.99 5.33 2.98 5.66 4 6 C2.68 6 1.36 6 0 6 C0 4.02 0 2.04 0 0 Z " fill="#5D7AAD" transform="translate(379,785)"/>
<path d="M0 0 C0.66 0 1.32 0 2 0 C2 0.66 2 1.32 2 2 C2.99 2 3.98 2 5 2 C5 1.34 5 0.68 5 0 C5.66 0 6.32 0 7 0 C7 0.66 7 1.32 7 2 C7.99 2.33 8.98 2.66 10 3 C9.67 4.32 9.34 5.64 9 7 C3.06 7 -2.88 7 -9 7 C-8.67 6.34 -8.34 5.68 -8 5 C-7.34 5.33 -6.68 5.66 -6 6 C-6 5.01 -6 4.02 -6 3 C-6.99 3.33 -7.98 3.66 -9 4 C-9 3.34 -9 2.68 -9 2 C-6.03 2 -3.06 2 0 2 C0 1.34 0 0.68 0 0 Z " fill="#5F7CAE" transform="translate(375,794)"/>
<path d="M0 0 C3.3 0 6.6 0 10 0 C10 0.99 10 1.98 10 3 C9.01 3 8.02 3 7 3 C7 7.62 7 12.24 7 17 C5.68 17 4.36 17 3 17 C3 12.38 3 7.76 3 3 C2.01 3 1.02 3 0 3 C0 2.01 0 1.02 0 0 Z " fill="#6C6C6C" transform="translate(326,56)"/>
<path d="M0 0 C3.3 0 6.6 0 10 0 C10 0.99 10 1.98 10 3 C9.01 3 8.02 3 7 3 C7 7.62 7 12.24 7 17 C5.68 17 4.36 17 3 17 C3 12.38 3 7.76 3 3 C2.01 3 1.02 3 0 3 C0 2.01 0 1.02 0 0 Z " fill="#6C6C6C" transform="translate(240,56)"/>
<path d="M0 0 C2.64 0 5.28 0 8 0 C8 0.99 8 1.98 8 3 C7.34 3 6.68 3 6 3 C6 3.66 6 4.32 6 5 C7.32 4.34 8.64 3.68 10 3 C10 2.01 10 1.02 10 0 C12.31 0 14.62 0 17 0 C17 1.98 17 3.96 17 6 C11.39 6 5.78 6 0 6 C0 4.02 0 2.04 0 0 Z " fill="#6D88B6" transform="translate(425,785)"/>
<path d="M0 0 C6.93 0 13.86 0 21 0 C20.67 1.65 20.34 3.3 20 5 C18.35 5 16.7 5 15 5 C15 4.34 15 3.68 15 3 C14.34 3 13.68 3 13 3 C13 3.66 13 4.32 13 5 C11.35 5 9.7 5 8 5 C8 4.34 8 3.68 8 3 C7.34 3 6.68 3 6 3 C6 3.66 6 4.32 6 5 C4.35 5 2.7 5 1 5 C0.67 3.35 0.34 1.7 0 0 Z " fill="#758EB9" transform="translate(304,796)"/>
<path d="M0 0 C0.66 0.66 1.32 1.32 2 2 C1.625 4.125 1.625 4.125 1 6 C-4.66666667 6 -10.33333333 6 -16 6 C-16.5625 4.0625 -16.5625 4.0625 -17 2 C-16 1 -16 1 -13.92578125 0.9375 C-12.63220703 0.9684375 -12.63220703 0.9684375 -11.3125 1 C-8.19616284 1.04458279 -5.58839043 0.92649829 -2.5 0.375 C-1.675 0.25125 -0.85 0.1275 0 0 Z " fill="#6F89B6" transform="translate(459,774)"/>
<path d="M0 0 C0.7425 0.185625 1.485 0.37125 2.25 0.5625 C4.94990963 0.99203108 6.44631077 0.85122974 9 0 C10.79682816 3.80504787 11.07349791 4.70600835 10 9 C6.04 9 2.08 9 -2 9 C-1.34 8.21625 -0.68 7.4325 0 6.625 C2.20201441 4.28487188 2.20201441 4.28487188 2 2 C1.34 1.34 0.68 0.68 0 0 Z " fill="#A5AAB1" transform="translate(81,185)"/>
<path d="M0 0 C2.66666667 2.66666667 5.33333333 5.33333333 8 8 C8.33 5.36 8.66 2.72 9 0 C9.66 0 10.32 0 11 0 C11 4.62 11 9.24 11 14 C5.375 9.5 5.375 9.5 3 6 C2.67 8.64 2.34 11.28 2 14 C1.34 14 0.68 14 0 14 C0 9.38 0 4.76 0 0 Z " fill="#5E7BAE" transform="translate(346,752)"/>
<path d="M0 0 C2.31 0 4.62 0 7 0 C7.33 0.66 7.66 1.32 8 2 C11.63 2 15.26 2 19 2 C19 3.65 19 5.3 19 7 C17.33388095 7.042721 15.66617115 7.04063832 14 7 C13.67 6.67 13.34 6.34 13 6 C8.85723125 5.75266863 8.85723125 5.75266863 5 7 C4.67 6.01 4.34 5.02 4 4 C2.68 4 1.36 4 0 4 C0 2.68 0 1.36 0 0 Z " fill="#859BC2" transform="translate(231,732)"/>
<path d="M0 0 C2.66666667 2.66666667 5.33333333 5.33333333 8 8 C8.33 5.36 8.66 2.72 9 0 C9.66 0 10.32 0 11 0 C11 4.62 11 9.24 11 14 C5.375 9.5 5.375 9.5 3 6 C2.67 8.64 2.34 11.28 2 14 C1.34 14 0.68 14 0 14 C0 9.38 0 4.76 0 0 Z " fill="#5E7BAE" transform="translate(576,119)"/>
<path d="M0 0 C4.55555556 0.55555556 4.55555556 0.55555556 6 2 C6.1875 4.9375 6.1875 4.9375 6 8 C5.34 8.66 4.68 9.32 4 10 C0.70285207 9.67028521 -0.6226839 9.3773161 -3 7 C-2.67028521 3.70285207 -2.3773161 2.3773161 0 0 Z " fill="#FEFEFE" transform="translate(176,121)"/>
<path d="M0 0 C4.55555556 0.55555556 4.55555556 0.55555556 6 2 C6.1875 4.9375 6.1875 4.9375 6 8 C5.34 8.66 4.68 9.32 4 10 C0.70285207 9.67028521 -0.6226839 9.3773161 -3 7 C-2.67028521 3.70285207 -2.3773161 2.3773161 0 0 Z " fill="#FDFDFD" transform="translate(143,121)"/>
<path d="M0 0 C4.55555556 0.55555556 4.55555556 0.55555556 6 2 C6.1875 4.9375 6.1875 4.9375 6 8 C5.34 8.66 4.68 9.32 4 10 C0.70285207 9.67028521 -0.6226839 9.3773161 -3 7 C-2.67028521 3.70285207 -2.3773161 2.3773161 0 0 Z " fill="#FEFEFE" transform="translate(88,121)"/>
<path d="M0 0 C1.22589844 0.01353516 1.22589844 0.01353516 2.4765625 0.02734375 C3.41628906 0.04474609 3.41628906 0.04474609 4.375 0.0625 C4.705 1.0525 5.035 2.0425 5.375 3.0625 C3.375 6.0625 3.375 6.0625 2.375 7.0625 C0.5625 7.1953125 0.5625 7.1953125 -1.625 7.1875 C-2.346875 7.19007813 -3.06875 7.19265625 -3.8125 7.1953125 C-5.625 7.0625 -5.625 7.0625 -6.625 6.0625 C-6.66563832 4.39632885 -6.667721 2.72861905 -6.625 1.0625 C-4.21954362 -0.14022819 -2.67503047 -0.03821472 0 0 Z " fill="#A8A8A8" transform="translate(278.625,415.9375)"/>
<path d="M0 0 C0.66 0 1.32 0 2 0 C2.66 1.65 3.32 3.3 4 5 C4.99 4.34 5.98 3.68 7 3 C8.32 3 9.64 3 11 3 C11.33 2.01 11.66 1.02 12 0 C12 2.97 12 5.94 12 9 C9.36 9 6.72 9 4 9 C3.67 8.01 3.34 7.02 3 6 C1.02463255 6.34786708 1.02463255 6.34786708 -1 7 C-1.33 7.66 -1.66 8.32 -2 9 C-2.66 8.67 -3.32 8.34 -4 8 C-2.68 5.36 -1.36 2.72 0 0 Z " fill="#878F98" transform="translate(109,240)"/>
<path d="M0 0 C2.5 0.25 2.5 0.25 4.5 2.25 C4.625 5.375 4.625 5.375 4.5 8.25 C1.125 8.875 1.125 8.875 -2.5 9.25 C-4.5 7.25 -4.5 7.25 -4.75 4.75 C-4.40058445 1.25584452 -3.49415548 0.34941555 0 0 Z " fill="#B9BDC2" transform="translate(133.5,202.75)"/>
<path d="M0 0 C3 1 3 1 4 3 C4.33 2.01 4.66 1.02 5 0 C5.66 0 6.32 0 7 0 C7.33 1.65 7.66 3.3 8 5 C8.66 3.35 9.32 1.7 10 0 C10.99 0 11.98 0 13 0 C12.42415568 2.38564077 11.77772405 4.66682784 11 7 C10.34 7 9.68 7 9 7 C9 7.66 9 8.32 9 9 C6.5625 8.625 6.5625 8.625 4 8 C3.67 7.34 3.34 6.68 3 6 C2.67 6.99 2.34 7.98 2 9 C1.34 9 0.68 9 0 9 C0 6.03 0 3.06 0 0 Z " fill="#5170A7" transform="translate(137,166)"/>
<path d="M0 0 C1.35421764 0.01720422 2.70840241 0.03757796 4.0625 0.0625 C4.7225 0.0625 5.3825 0.0625 6.0625 0.0625 C8.72916667 0.0625 11.39583333 0.0625 14.0625 0.0625 C14.0625 1.7125 14.0625 3.3625 14.0625 5.0625 C13.7325 3.7425 13.4025 2.4225 13.0625 1.0625 C12.4025 1.0625 11.7425 1.0625 11.0625 1.0625 C10.7325 2.3825 10.4025 3.7025 10.0625 5.0625 C10.0625 3.7425 10.0625 2.4225 10.0625 1.0625 C9.4025 1.0625 8.7425 1.0625 8.0625 1.0625 C8.0625 2.3825 8.0625 3.7025 8.0625 5.0625 C4.0625 5.0625 0.0625 5.0625 -3.9375 5.0625 C-4.5 3.125 -4.5 3.125 -4.9375 1.0625 C-3.9375 0.0625 -3.9375 0.0625 0 0 Z " fill="#728CB8" transform="translate(405.9375,795.9375)"/>
<path d="M0 0 C2.625 0.375 2.625 0.375 5 1 C5 1.66 5 2.32 5 3 C5.33 3 5.66 3 6 3 C6 2.01 6 1.02 6 0 C8.31 0 10.62 0 13 0 C14 3 14 3 14 6 C9.38 6 4.76 6 0 6 C-0.66 4.68 -1.32 3.36 -2 2 C-1.34 1.34 -0.68 0.68 0 0 Z " fill="#9197A0" transform="translate(135,243)"/>
<path d="M0 0 C0.99 0 1.98 0 3 0 C3.33 1.32 3.66 2.64 4 4 C4.66 4 5.32 4 6 4 C6 2.68 6 1.36 6 0 C6.598125 0.185625 7.19625 0.37125 7.8125 0.5625 C10.16408762 1.22093687 10.16408762 1.22093687 13 0 C13.33 2.31 13.66 4.62 14 7 C8.75617188 7 4.94705381 6.64901794 0 5 C0 5.66 0 6.32 0 7 C-0.66 7 -1.32 7 -2 7 C-1.34 4.69 -0.68 2.38 0 0 Z " fill="#5977AB" transform="translate(566,278)"/>
<path d="M0 0 C0.9075 0.185625 1.815 0.37125 2.75 0.5625 C5.68314324 0.95734621 7.2644657 0.94691572 10 0 C10.625 2.375 10.625 2.375 11 5 C10.34 5.66 9.68 6.32 9 7 C9.66 7.66 10.32 8.32 11 9 C7.37 9 3.74 9 0 9 C0 8.01 0 7.02 0 6 C0.99 6 1.98 6 3 6 C2.67 5.34 2.34 4.68 2 4 C2.33 3.01 2.66 2.02 3 1 C1.68 1.33 0.36 1.66 -1 2 C-0.67 1.34 -0.34 0.68 0 0 Z " fill="#959BA3" transform="translate(78,222)"/>
<path d="M0 0 C1.32 0 2.64 0 4 0 C4 5.61 4 11.22 4 17 C2.68 17 1.36 17 0 17 C0 11.39 0 5.78 0 0 Z " fill="#6A6A6A" transform="translate(196,56)"/>
<path d="M0 0 C1.32 0 2.64 0 4 0 C4 5.61 4 11.22 4 17 C2.68 17 1.36 17 0 17 C0 11.39 0 5.78 0 0 Z " fill="#6A6A6A" transform="translate(134,56)"/>
<path d="M0 0 C1.32 0 2.64 0 4 0 C4 5.61 4 11.22 4 17 C2.68 17 1.36 17 0 17 C0 11.39 0 5.78 0 0 Z " fill="#6A6A6A" transform="translate(63,56)"/>
<path d="M0 0 C5.28 0 10.56 0 16 0 C16.33 1.65 16.66 3.3 17 5 C14.525 4.505 14.525 4.505 12 4 C12 3.34 12 2.68 12 2 C10.68 1.67 9.36 1.34 8 1 C8 1.99 8 2.98 8 4 C8.99 4.33 9.98 4.66 11 5 C10.236875 4.814375 9.47375 4.62875 8.6875 4.4375 C5.91032625 3.77180827 5.91032625 3.77180827 3 5 C0.8125 4.5625 0.8125 4.5625 -1 4 C-0.67 2.68 -0.34 1.36 0 0 Z " fill="#5C7AAD" transform="translate(388,775)"/>
<path d="M0 0 C3.63195496 2.42130331 4.11078474 4.11929096 5.6875 8.125 C6.34298828 9.76855469 6.34298828 9.76855469 7.01171875 11.4453125 C7.33785156 12.28835938 7.66398437 13.13140625 8 14 C7.01 13.67 6.02 13.34 5 13 C4.3125 10.9375 4.3125 10.9375 4 9 C1.05908413 9.18415432 1.05908413 9.18415432 -2 10 C-3.43637698 11.95163118 -3.43637698 11.95163118 -4 14 C-4.66 14 -5.32 14 -6 14 C-4.50829734 9.0276578 -2.39542583 4.58154261 0 0 Z " fill="#6C87B5" transform="translate(336,752)"/>
<path d="M0 0 C0.99 0 1.98 0 3 0 C3 4.62 3 9.24 3 14 C4.65 14 6.3 14 8 14 C8 14.99 8 15.98 8 17 C5.36 17 2.72 17 0 17 C0 11.39 0 5.78 0 0 Z " fill="#595959" transform="translate(300,56)"/>
<path d="M0 0 C0.99 0 1.98 0 3 0 C3 4.62 3 9.24 3 14 C4.65 14 6.3 14 8 14 C8 14.99 8 15.98 8 17 C5.36 17 2.72 17 0 17 C0 11.39 0 5.78 0 0 Z " fill="#595959" transform="translate(106,56)"/>
<path d="M0 0 C1.32 1.32 2.64 2.64 4 4 C4.66 3.34 5.32 2.68 6 2 C7.32 2 8.64 2 10 2 C10.33 1.34 10.66 0.68 11 0 C11 2.64 11 5.28 11 8 C8.36 8 5.72 8 3 8 C3 7.34 3 6.68 3 6 C1.35 6 -0.3 6 -2 6 C-1.125 1.125 -1.125 1.125 0 0 Z " fill="#808080" transform="translate(107,387)"/>
<path d="M0 0 C3.125 0.375 3.125 0.375 6 1 C6 3.31 6 5.62 6 8 C3.1875 8.6875 3.1875 8.6875 0 9 C-1.9375 7.8125 -1.9375 7.8125 -3 6 C-2.72963853 3.02602384 -2.14553974 2.14553974 0 0 Z " fill="#4F6FA6" transform="translate(85,166)"/>
<path d="M0 0 C1.9375 0.375 1.9375 0.375 4 1 C4.33 1.66 4.66 2.32 5 3 C5.99 2.01 6.98 1.02 8 0 C8.99 0.33 9.98 0.66 11 1 C10.525625 1.845625 10.05125 2.69125 9.5625 3.5625 C7.94278487 7.12587329 7.38743857 10.12561425 7 14 C6.01 14 5.02 14 4 14 C3.87882812 13.40832031 3.75765625 12.81664062 3.6328125 12.20703125 C2.73255357 7.96196415 1.79543379 3.97560339 0 0 Z " fill="#DCDCDC" transform="translate(70,119)"/>
<path d="M0 0 C1.1446875 0.2475 1.1446875 0.2475 2.3125 0.5 C5.00856207 1.00159294 6.44020291 0.8532657 9 0 C9.75 1.75 9.75 1.75 10 4 C8.0625 6.25 8.0625 6.25 6 8 C5.67 7.34 5.34 6.68 5 6 C4.34 6.66 3.68 7.32 3 8 C0.875 7.625 0.875 7.625 -1 7 C-1.04254356 5.00045254 -1.04080783 2.99958364 -1 1 C-0.67 0.67 -0.34 0.34 0 0 Z " fill="#939393" transform="translate(131,369)"/>
<path d="M0 0 C0.9075 0.185625 1.815 0.37125 2.75 0.5625 C5.68314324 0.95734621 7.2644657 0.94691572 10 0 C10.625 1.875 10.625 1.875 11 4 C10.34 4.66 9.68 5.32 9 6 C9.66 6.66 10.32 7.32 11 8 C7.37 8 3.74 8 0 8 C-0.33 7.01 -0.66 6.02 -1 5 C-0.34 5 0.32 5 1 5 C1 5.66 1 6.32 1 7 C1.66 6.34 2.32 5.68 3 5 C2.67 4.34 2.34 3.68 2 3 C2.33 2.34 2.66 1.68 3 1 C2.01 1.33 1.02 1.66 0 2 C0 1.34 0 0.68 0 0 Z " fill="#868686" transform="translate(77,369)"/>
<path d="M0 0 C3.3 0 6.6 0 10 0 C10.38218767 1.65614657 10.71395102 3.32457024 11 5 C10 6 10 6 7.71484375 6.09765625 C6.34005859 6.08025391 6.34005859 6.08025391 4.9375 6.0625 C4.01839844 6.05347656 3.09929687 6.04445313 2.15234375 6.03515625 C1.44207031 6.02355469 0.73179687 6.01195312 0 6 C0 4.02 0 2.04 0 0 Z " fill="#748DB9" transform="translate(413,785)"/>
<path d="M0 0 C0.66 0 1.32 0 2 0 C2.66 1.32 3.32 2.64 4 4 C4.66 2.68 5.32 1.36 6 0 C6.66 0 7.32 0 8 0 C8 0.99 8 1.98 8 3 C8.66 3 9.32 3 10 3 C10 2.01 10 1.02 10 0 C10.66 0 11.32 0 12 0 C12.33 2.31 12.66 4.62 13 7 C12.34 6.34 11.68 5.68 11 5 C10.67 5.66 10.34 6.32 10 7 C6.09397933 7 3.45892635 6.72946317 0 5 C0 5.66 0 6.32 0 7 C-0.66 7 -1.32 7 -2 7 C-1.34 4.69 -0.68 2.38 0 0 Z " fill="#424242" transform="translate(567,416)"/>
<path d="M0 0 C0.99 0 1.98 0 3 0 C3.33 0.99 3.66 1.98 4 3 C4.66 2.01 5.32 1.02 6 0 C6.66 0 7.32 0 8 0 C8.33 2.97 8.66 5.94 9 9 C7.02 9 5.04 9 3 9 C2.67 8.34 2.34 7.68 2 7 C1.67 7.66 1.34 8.32 1 9 C0.34 9 -0.32 9 -1 9 C-0.67 6.03 -0.34 3.06 0 0 Z " fill="#5775AA" transform="translate(93,166)"/>
<path d="M0 0 C0.66 0 1.32 0 2 0 C2.33 0.66 2.66 1.32 3 2 C3.33 1.34 3.66 0.68 4 0 C4.66 0 5.32 0 6 0 C6.33 0.99 6.66 1.98 7 3 C7.33 2.01 7.66 1.02 8 0 C8.99 0 9.98 0 11 0 C12.0625 1.8125 12.0625 1.8125 13 4 C12.67 4.99 12.34 5.98 12 7 C10.68 6.34 9.36 5.68 8 5 C8 5.66 8 6.32 8 7 C7.236875 6.814375 6.47375 6.62875 5.6875 6.4375 C2.91032625 5.77180827 2.91032625 5.77180827 0 7 C0 4.69 0 2.38 0 0 Z " fill="#6984B3" transform="translate(126,278)"/>
<path d="M0 0 C6.0546875 -0.1953125 6.0546875 -0.1953125 8 0 C8.66 0.66 9.32 1.32 10 2 C9.625 4.125 9.625 4.125 9 6 C5.846632 6.70074844 3.27275026 7 0 7 C0 4.69 0 2.38 0 0 Z " fill="#808080" transform="translate(298,416)"/>
<path d="M0 0 C2.16874252 0.50603992 3.99967627 0.99983813 6 2 C6 1.34 6 0.68 6 0 C7.32 0.33 8.64 0.66 10 1 C10 2.98 10 4.96 10 7 C6.17315739 7.78499336 2.90099296 8 -1 8 C-0.01 6.02 0.98 4.04 2 2 C1.34 1.34 0.68 0.68 0 0 Z " fill="#909090" transform="translate(80,333)"/>
<path d="M0 0 C0.86625 0.2784375 0.86625 0.2784375 1.75 0.5625 C3.96665824 1.15823559 3.96665824 1.15823559 6 0.5 C8.34648094 -0.08662023 9.72600578 0.26907328 12 1 C11.34 1 10.68 1 10 1 C10 1.66 10 2.32 10 3 C10.66 3.33 11.32 3.66 12 4 C11.34 4 10.68 4 10 4 C10 4.66 10 5.32 10 6 C10.66 6.33 11.32 6.66 12 7 C6.48723898 7.12529002 6.48723898 7.12529002 3.8125 6.4375 C1.7824796 5.77806294 1.7824796 5.77806294 -1 7 C-0.67 4.69 -0.34 2.38 0 0 Z " fill="#4A6BA4" transform="translate(104,278)"/>
<path d="M0 0 C1.65322266 0.01740234 1.65322266 0.01740234 3.33984375 0.03515625 C4.99693359 0.04869141 4.99693359 0.04869141 6.6875 0.0625 C7.54214844 0.07410156 8.39679688 0.08570313 9.27734375 0.09765625 C9.27734375 2.07765625 9.27734375 4.05765625 9.27734375 6.09765625 C6.30734375 6.09765625 3.33734375 6.09765625 0.27734375 6.09765625 C0.27734375 4.44765625 0.27734375 2.79765625 0.27734375 1.09765625 C-2.23348739 2.35307182 -2.59391071 3.59829113 -3.72265625 6.09765625 C-3.76537725 4.4315372 -3.76329457 2.7638274 -3.72265625 1.09765625 C-2.72265625 0.09765625 -2.72265625 0.09765625 0 0 Z " fill="#9197A0" transform="translate(87.72265625,242.90234375)"/>
<path d="M0 0 C2.05078125 0.03255208 4.1015625 0.06510417 6.15234375 0.09765625 C6.15234375 2.40765625 6.15234375 4.71765625 6.15234375 7.09765625 C0.09765625 7.29296875 0.09765625 7.29296875 -1.84765625 7.09765625 C-2.50765625 6.43765625 -3.16765625 5.77765625 -3.84765625 5.09765625 C-3.1001104 0.16385362 -3.1001104 0.16385362 0 0 Z " fill="#5C79AD" transform="translate(574.84765625,203.90234375)"/>
<path d="M0 0 C2.05078125 0.03255208 4.1015625 0.06510417 6.15234375 0.09765625 C6.15234375 2.40765625 6.15234375 4.71765625 6.15234375 7.09765625 C0.09765625 7.29296875 0.09765625 7.29296875 -1.84765625 7.09765625 C-2.50765625 6.43765625 -3.16765625 5.77765625 -3.84765625 5.09765625 C-3.1001104 0.16385362 -3.1001104 0.16385362 0 0 Z " fill="#5C79AD" transform="translate(606.84765625,166.90234375)"/>
<path d="M0 0 C0.33 0.66 0.66 1.32 1 2 C2.98 1.34 4.96 0.68 7 0 C7.33 0.66 7.66 1.32 8 2 C10.52733235 2.65555119 10.52733235 2.65555119 13 3 C13 3.66 13 4.32 13 5 C3.58997722 7.29612756 3.58997722 7.29612756 -1 7 C-0.67 4.69 -0.34 2.38 0 0 Z " fill="#728BB8" transform="translate(354,732)"/>
<path d="M0 0 C1.134375 0.020625 2.26875 0.04125 3.4375 0.0625 C3.4375 1.3825 3.4375 2.7025 3.4375 4.0625 C4.0975 4.0625 4.7575 4.0625 5.4375 4.0625 C5.4375 2.7425 5.4375 1.4225 5.4375 0.0625 C7.0875 0.0625 8.7375 0.0625 10.4375 0.0625 C10.1075 1.7125 9.7775 3.3625 9.4375 5.0625 C5.1475 5.0625 0.8575 5.0625 -3.5625 5.0625 C-3.8925 3.7425 -4.2225 2.4225 -4.5625 1.0625 C-3.5625 0.0625 -3.5625 0.0625 0 0 Z " fill="#8DA1C6" transform="translate(396.5625,733.9375)"/>
<path d="M0 0 C0.66 0 1.32 0 2 0 C2.33 0.66 2.66 1.32 3 2 C3.33 1.34 3.66 0.68 4 0 C4.928125 0.165 5.85625 0.33 6.8125 0.5 C9.95621353 1.07748388 9.95621353 1.07748388 13 1 C12.34 2.98 11.68 4.96 11 7 C10.01 7 9.02 7 8 7 C7.67 6.01 7.34 5.02 7 4 C6.67 4.99 6.34 5.98 6 7 C4 7 2 7 0 7 C0 4.69 0 2.38 0 0 Z " fill="#6D87B5" transform="translate(558,204)"/>
<path d="M0 0 C0.66 0 1.32 0 2 0 C2.33 0.66 2.66 1.32 3 2 C3.33 1.34 3.66 0.68 4 0 C4.928125 0.165 5.85625 0.33 6.8125 0.5 C9.95621353 1.07748388 9.95621353 1.07748388 13 1 C12.34 2.98 11.68 4.96 11 7 C10.01 7 9.02 7 8 7 C7.67 6.01 7.34 5.02 7 4 C6.67 4.99 6.34 5.98 6 7 C4 7 2 7 0 7 C0 4.69 0 2.38 0 0 Z " fill="#6D87B5" transform="translate(590,167)"/>
<path d="M0 0 C0.66 0 1.32 0 2 0 C2.33 0.66 2.66 1.32 3 2 C3.33 1.34 3.66 0.68 4 0 C5.32 0.33 6.64 0.66 8 1 C7.01 1 6.02 1 5 1 C5 1.66 5 2.32 5 3 C5.99 3.33 6.98 3.66 8 4 C7.67 5.32 7.34 6.64 7 8 C4.69 8 2.38 8 0 8 C0 7.34 0 6.68 0 6 C-0.99 5.67 -1.98 5.34 -3 5 C-1.625 2.5 -1.625 2.5 0 0 Z " fill="#7D7D7D" transform="translate(105,369)"/>
<path d="M0 0 C1.98 0 3.96 0 6 0 C4.68 0.33 3.36 0.66 2 1 C2 1.99 2 2.98 2 4 C6.455 3.505 6.455 3.505 11 3 C10.01 3.33 9.02 3.66 8 4 C8 5.65 8 7.3 8 9 C5.36 9 2.72 9 0 9 C0 6.03 0 3.06 0 0 Z " fill="#9298A1" transform="translate(73,240)"/>
<path d="M0 0 C1.32 0.33 2.64 0.66 4 1 C3.01 1 2.02 1 1 1 C1 1.66 1 2.32 1 3 C1.63808594 2.91621094 2.27617188 2.83242188 2.93359375 2.74609375 C3.75988281 2.64425781 4.58617188 2.54242188 5.4375 2.4375 C6.26121094 2.33308594 7.08492188 2.22867187 7.93359375 2.12109375 C8.61550781 2.08113281 9.29742187 2.04117187 10 2 C11 3 11 3 11.0625 5.5625 C11.041875 6.366875 11.02125 7.17125 11 8 C10.34 8 9.68 8 9 8 C9 6.35 9 4.7 9 3 C8.34 3 7.68 3 7 3 C7 4.65 7 6.3 7 8 C4.69 8 2.38 8 0 8 C0 5.36 0 2.72 0 0 Z " fill="#787878" transform="translate(73,387)"/>
<path d="M0 0 C2.00720923 0.28674418 4.0085944 0.61866701 6 1 C6 2.98 6 4.96 6 7 C3.125 7.625 3.125 7.625 0 8 C-0.66 7.34 -1.32 6.68 -2 6 C-1.44444444 1.44444444 -1.44444444 1.44444444 0 0 Z " fill="#A6A6A6" transform="translate(128,351)"/>
<path d="M0 0 C0.66 0 1.32 0 2 0 C2.33 0.99 2.66 1.98 3 3 C3.33 2.67 3.66 2.34 4 2 C5.66617115 1.95936168 7.33388095 1.957279 9 2 C9 3.98 9 5.96 9 8 C5.50765756 8.09978121 2.40562852 7.77842938 -1 7 C-0.67 4.69 -0.34 2.38 0 0 Z " fill="#929292" transform="translate(135,314)"/>
<path d="M0 0 C1.97909398 -0.02686553 3.95828971 -0.04633375 5.9375 -0.0625 C7.03964844 -0.07410156 8.14179688 -0.08570313 9.27734375 -0.09765625 C12 0 12 0 13 1 C13.04063832 2.66617115 13.042721 4.33388095 13 6 C12.34 6 11.68 6 11 6 C11 4.35 11 2.7 11 1 C10.34 1 9.68 1 9 1 C9 2.65 9 4.3 9 6 C7.35 6 5.7 6 4 6 C3.67 5.01 3.34 4.02 3 3 C2.67 3.99 2.34 4.98 2 6 C1.34 6 0.68 6 0 6 C0 4.02 0 2.04 0 0 Z " fill="#6E6E6E" transform="translate(178,299)"/>
<path d="M0 0 C3.63 0 7.26 0 11 0 C10.67 1.98 10.34 3.96 10 6 C8.35 6.33 6.7 6.66 5 7 C5 6.34 5 5.68 5 5 C3.35 5 1.7 5 0 5 C0 3.35 0 1.7 0 0 Z " fill="#7890BB" transform="translate(345,775)"/>
<path d="M0 0 C2.64 0 5.28 0 8 0 C8 2.33333333 8 4.66666667 8 7 C5.36 7 2.72 7 0 7 C0 4.69 0 2.38 0 0 Z " fill="#696969" transform="translate(262,416)"/>
<path d="M0 0 C0.66 0 1.32 0 2 0 C2.99 2.97 3.98 5.94 5 9 C5.66 9 6.32 9 7 9 C7.99 6.03 8.98 3.06 10 0 C10.99 0.33 11.98 0.66 13 1 C11.02 5.29 9.04 9.58 7 14 C6.34 14 5.68 14 5 14 C4.16235732 12.04350603 3.33000941 10.08474444 2.5 8.125 C2.0359375 7.03445312 1.571875 5.94390625 1.09375 4.8203125 C0 2 0 2 0 0 Z " fill="#5D7AAD" transform="translate(590,119)"/>
<path d="M0 0 C5.33333333 0 10.66666667 0 16 0 C15.34 2.31 14.68 4.62 14 7 C12 6 12 6 11 5 C10.34 5 9.68 5 9 5 C9 3.68 9 2.36 9 1 C8.34 1 7.68 1 7 1 C7 2.32 7 3.64 7 5 C5.02 5 3.04 5 1 5 C1.66 4.01 2.32 3.02 3 2 C2.01 2 1.02 2 0 2 C0 1.34 0 0.68 0 0 Z " fill="#718AB7" transform="translate(442,734)"/>
<path d="M0 0 C2.97 0 5.94 0 9 0 C9 2.33333333 9 4.66666667 9 7 C2.84765625 7.09765625 2.84765625 7.09765625 1 7 C0 6 0 6 -0.0625 2.9375 C-0.041875 1.968125 -0.02125 0.99875 0 0 Z " fill="#6984B3" transform="translate(80,278)"/>
<path d="M0 0 C0 1.32 0 2.64 0 4 C-3.63 4 -7.26 4 -11 4 C-11.33 4.66 -11.66 5.32 -12 6 C-11.67 3.69 -11.34 1.38 -11 -1 C-6.70700357 -2.26264601 -4.12168689 -1.62950412 0 0 Z " fill="#6580B1" transform="translate(423,776)"/>
<path d="M0 0 C0.66 0 1.32 0 2 0 C2.33 0.66 2.66 1.32 3 2 C3.33 1.34 3.66 0.68 4 0 C7.11257569 0 9.10765685 0.17361624 12 1 C11.01 1.33 10.02 1.66 9 2 C9 2.99 9 3.98 9 5 C9.99 5.66 10.98 6.32 12 7 C11.278125 6.814375 10.55625 6.62875 9.8125 6.4375 C6.8527768 5.97709861 4.88369435 6.29856083 2 7 C1.34 7 0.68 7 0 7 C0 4.69 0 2.38 0 0 Z " fill="#5473A9" transform="translate(599,204)"/>
<path d="M0 0 C0.33 1.32 0.66 2.64 1 4 C2.32 3.67 3.64 3.34 5 3 C4.34 3 3.68 3 3 3 C3 2.01 3 1.02 3 0 C6.875 0.875 6.875 0.875 8 2 C8.33 1.34 8.66 0.68 9 0 C9.66 0 10.32 0 11 0 C11.33 1.65 11.66 3.3 12 5 C7.1648862 6.6117046 1.80348505 6.60116168 -3 5 C-1.125 1.125 -1.125 1.125 0 0 Z " fill="#5C79AD" transform="translate(338,785)"/>
<path d="M0 0 C0.66 0 1.32 0 2 0 C2 1.98 2 3.96 2 6 C2.66 6 3.32 6 4 6 C4.433125 4.7934375 4.433125 4.7934375 4.875 3.5625 C6 1 6 1 8 0 C8.625 3.375 8.625 3.375 9 7 C8.34 7.66 7.68 8.32 7 9 C7 8.34 7 7.68 7 7 C6.46375 7.185625 5.9275 7.37125 5.375 7.5625 C2.38009386 8.11419324 -0.03745829 7.60597444 -3 7 C-1.125 2.25 -1.125 2.25 0 0 Z " fill="#69727E" transform="translate(163,203)"/>
<path d="M0 0 C0.99 0 1.98 0 3 0 C3 3.96 3 7.92 3 12 C4.32 12 5.64 12 7 12 C7 12.66 7 13.32 7 14 C4.69 14 2.38 14 0 14 C0 9.38 0 4.76 0 0 Z " fill="#DBDBDC" transform="translate(129,119)"/>
<path d="M0 0 C0.33 0 0.66 0 1 0 C1 1.98 1 3.96 1 6 C3.31 6 5.62 6 8 6 C8 4.02 8 2.04 8 0 C8.66 0 9.32 0 10 0 C10 4.62 10 9.24 10 14 C9.34 14 8.68 14 8 14 C8 11.69 8 9.38 8 7 C5.69 7 3.38 7 1 7 C1 9.31 1 11.62 1 14 C0.67 14 0.34 14 0 14 C0 9.38 0 4.76 0 0 Z " fill="#4667A2" transform="translate(317,752)"/>
<path d="M0 0 C1.79244141 0.01740234 1.79244141 0.01740234 3.62109375 0.03515625 C5.41740234 0.04869141 5.41740234 0.04869141 7.25 0.0625 C8.17683594 0.07410156 9.10367187 0.08570313 10.05859375 0.09765625 C8.73859375 1.74765625 7.41859375 3.39765625 6.05859375 5.09765625 C6.05859375 3.77765625 6.05859375 2.45765625 6.05859375 1.09765625 C5.39859375 1.09765625 4.73859375 1.09765625 4.05859375 1.09765625 C4.05859375 2.41765625 4.05859375 3.73765625 4.05859375 5.09765625 C1.74859375 5.09765625 -0.56140625 5.09765625 -2.94140625 5.09765625 C-3.50390625 3.16015625 -3.50390625 3.16015625 -3.94140625 1.09765625 C-2.94140625 0.09765625 -2.94140625 0.09765625 0 0 Z " fill="#859AC1" transform="translate(472.94140625,733.90234375)"/>
<path d="M0 0 C0.804375 0.185625 1.60875 0.37125 2.4375 0.5625 C3.283125 0.706875 4.12875 0.85125 5 1 C5.33 0.67 5.66 0.34 6 0 C7.66617115 -0.04063832 9.33388095 -0.042721 11 0 C11 1.98 11 3.96 11 6 C8 6 5 6 2 6 C2 4.35 2 2.7 2 1 C1.34 0.67 0.68 0.34 0 0 Z " fill="#888888" transform="translate(84,389)"/>
<path d="M0 0 C0.66 0 1.32 0 2 0 C2.33 0.66 2.66 1.32 3 2 C3.33 1.34 3.66 0.68 4 0 C5.98 0 7.96 0 10 0 C9.67 2.31 9.34 4.62 9 7 C6 7 3 7 0 7 C0 4.69 0 2.38 0 0 Z " fill="#5876AB" transform="translate(596,278)"/>
<path d="M0 0 C0.33 0 0.66 0 1 0 C1 1.98 1 3.96 1 6 C2.65 6.33 4.3 6.66 6 7 C6 6.34 6 5.68 6 5 C5.01 4.67 4.02 4.34 3 4 C3.33 2.68 3.66 1.36 4 0 C5.32 0.33 6.64 0.66 8 1 C7.01 1 6.02 1 5 1 C5 1.66 5 2.32 5 3 C5.99 3.33 6.98 3.66 8 4 C7.67 5.65 7.34 7.3 7 9 C6.21625 8.814375 5.4325 8.62875 4.625 8.4375 C2.02910225 7.74037734 2.02910225 7.74037734 0 9 C0 8.34 0 7.68 0 7 C-1.32 6.67 -2.64 6.34 -4 6 C-2.69593116 3.98079663 -1.36176581 1.98075027 0 0 Z " fill="#6D7681" transform="translate(108,222)"/>
<path d="M0 0 C0.7425 0.185625 1.485 0.37125 2.25 0.5625 C4.94990963 0.99203108 6.44631077 0.85122974 9 0 C9.33 1.65 9.66 3.3 10 5 C9.01 5.495 9.01 5.495 8 6 C5.875 5.0625 5.875 5.0625 4 4 C3.67 5.65 3.34 7.3 3 9 C1.35 8.67 -0.3 8.34 -2 8 C-1.67 7.01 -1.34 6.02 -1 5 C-0.67 5.66 -0.34 6.32 0 7 C0.66 7 1.32 7 2 7 C2 6.34 2 5.68 2 5 C1.34 4.34 0.68 3.68 0 3 C0.66 3 1.32 3 2 3 C2 2.34 2 1.68 2 1 C1.34 0.67 0.68 0.34 0 0 Z " fill="#666F7B" transform="translate(135,222)"/>
<path d="M0 0 C1.43791516 0.14168137 2.8753237 0.28851043 4.3125 0.4375 C5.11300781 0.51871094 5.91351563 0.59992187 6.73828125 0.68359375 C9 1 9 1 12 2 C11.34 3.32 10.68 4.64 10 6 C7.37886292 6 5.49064888 5.68707555 3 5 C3 4.34 3 3.68 3 3 C2.34 3 1.68 3 1 3 C1 3.99 1 4.98 1 6 C0.34 6 -0.32 6 -1 6 C-0.67 4.02 -0.34 2.04 0 0 Z " fill="#728BB8" transform="translate(250,774)"/>
<path d="M0 0 C3 1 3 1 4 3 C4.33 2.01 4.66 1.02 5 0 C5.66 0 6.32 0 7 0 C7 2.97 7 5.94 7 9 C6.01 8.67 5.02 8.34 4 8 C3.67 7.34 3.34 6.68 3 6 C2.67 6.99 2.34 7.98 2 9 C1.34 9 0.68 9 0 9 C0 6.03 0 3.06 0 0 Z " fill="#4A6AA3" transform="translate(118,166)"/>
<path d="M0 0 C4.62 0 9.24 0 14 0 C13.01 0.33 12.02 0.66 11 1 C11 1.99 11 2.98 11 4 C11.99 4.33 12.98 4.66 14 5 C13.01 5 12.02 5 11 5 C11 5.66 11 6.32 11 7 C10.34 7 9.68 7 9 7 C8.67 5.02 8.34 3.04 8 1 C5.66924071 1.95865509 5.66924071 1.95865509 4 5 C4 3.68 4 2.36 4 1 C3.34 1 2.68 1 2 1 C2 2.32 2 3.64 2 5 C1.34 5 0.68 5 0 5 C0 3.35 0 1.7 0 0 Z " fill="#748DB9" transform="translate(425,734)"/>
<path d="M0 0 C3.69230769 0.69230769 3.69230769 0.69230769 5 2 C5.1875 4.4375 5.1875 4.4375 5 7 C4.34 7.66 3.68 8.32 3 9 C0.875 8.625 0.875 8.625 -1 8 C-1.04241723 5.66705225 -1.04092937 3.33297433 -1 1 C-0.67 0.67 -0.34 0.34 0 0 Z " fill="#ABB0B6" transform="translate(147,222)"/>
<path d="M0 0 C2.05078125 0.03255208 4.1015625 0.06510417 6.15234375 0.09765625 C7.15234375 4.97265625 7.15234375 4.97265625 7.15234375 6.09765625 C4.18234375 6.09765625 1.21234375 6.09765625 -1.84765625 6.09765625 C-2.17765625 5.43765625 -2.50765625 4.77765625 -2.84765625 4.09765625 C-2.18765625 3.76765625 -1.52765625 3.43765625 -0.84765625 3.09765625 C-1.50765625 2.43765625 -2.16765625 1.77765625 -2.84765625 1.09765625 C-1.84765625 0.09765625 -1.84765625 0.09765625 0 0 Z " fill="#7A91BC" transform="translate(317.84765625,784.90234375)"/>
<path d="M0 0 C0.33 0.66 0.66 1.32 1 2 C1.99 2.33 2.98 2.66 4 3 C3.34 3 2.68 3 2 3 C2.66 4.32 3.32 5.64 4 7 C0.66666667 7 -2.66666667 7 -6 7 C-6.33 5.68 -6.66 4.36 -7 3 C-6.21625 2.87625 -5.4325 2.7525 -4.625 2.625 C-1.85942178 2.20882007 -1.85942178 2.20882007 0 0 Z " fill="#8A9FC4" transform="translate(320,732)"/>
<path d="M0 0 C0.66 0.66 1.32 1.32 2 2 C4.10820797 1.6814823 4.10820797 1.6814823 6 1 C6.33 2.98 6.66 4.96 7 7 C3 7 3 7 1 6 C1 7.65 1 9.3 1 11 C0.34 10.67 -0.32 10.34 -1 10 C-1.125 2.25 -1.125 2.25 0 0 Z " fill="#CFD2D5" transform="translate(75,222)"/>
<path d="M0 0 C0.99 0.33 1.98 0.66 3 1 C3 1.33 3 1.66 3 2 C4.32 2 5.64 2 7 2 C6.67 3.65 6.34 5.3 6 7 C5.4225 6.814375 4.845 6.62875 4.25 6.4375 C1.79307475 5.95976454 0.35602466 6.24270636 -2 7 C-2.125 4.625 -2.125 4.625 -2 2 C-1.34 1.34 -0.68 0.68 0 0 Z " fill="#768EBA" transform="translate(287,773)"/>
<path d="M0 0 C0.66 1.32 1.32 2.64 2 4 C3.32 2.68 4.64 1.36 6 0 C6.99 0.33 7.98 0.66 9 1 C7.35 2.32 5.7 3.64 4 5 C4.47202486 9.24822374 6.96655518 11.19989709 10 14 C6.20411134 13.45773019 4.52788007 11.79872437 2 9 C1.67 10.65 1.34 12.3 1 14 C0.67 14 0.34 14 0 14 C0 9.38 0 4.76 0 0 Z " fill="#40639F" transform="translate(360,752)"/>
<path d="M0 0 C1.546875 0.0309375 1.546875 0.0309375 3.125 0.0625 C4.115 0.0625 5.105 0.0625 6.125 0.0625 C6.455 0.7225 6.785 1.3825 7.125 2.0625 C5.6875 4.6875 5.6875 4.6875 4.125 7.0625 C3.465 6.7325 2.805 6.4025 2.125 6.0625 C2.125 5.7325 2.125 5.4025 2.125 5.0625 C0.475 5.0625 -1.175 5.0625 -2.875 5.0625 C-3.4375 3.125 -3.4375 3.125 -3.875 1.0625 C-2.875 0.0625 -2.875 0.0625 0 0 Z " fill="#869CC2" transform="translate(337.875,733.9375)"/>
<path d="M0 0 C0.33 0.66 0.66 1.32 1 2 C1.99 2 2.98 2 4 2 C4 3.65 4 5.3 4 7 C3.67 5.68 3.34 4.36 3 3 C2.34 3 1.68 3 1 3 C0.67 4.32 0.34 5.64 0 7 C-1.98 7 -3.96 7 -6 7 C-6.33 5.68 -6.66 4.36 -7 3 C-6.21625 2.87625 -5.4325 2.7525 -4.625 2.625 C-1.85942178 2.20882007 -1.85942178 2.20882007 0 0 Z " fill="#8DA1C5" transform="translate(301,732)"/>
<path d="M0 0 C2.625 0.375 2.625 0.375 5 1 C5.625 2.875 5.625 2.875 6 5 C5.34 5.66 4.68 6.32 4 7 C1.375 6.625 1.375 6.625 -1 6 C-1.625 4.125 -1.625 4.125 -2 2 C-1.34 1.34 -0.68 0.68 0 0 Z " fill="#93A6C8" transform="translate(96,278)"/>
<path d="M0 0 C2.625 0.375 2.625 0.375 5 1 C5.625 2.875 5.625 2.875 6 5 C5.34 5.66 4.68 6.32 4 7 C1.375 6.625 1.375 6.625 -1 6 C-1.625 4.125 -1.625 4.125 -2 2 C-1.34 1.34 -0.68 0.68 0 0 Z " fill="#93A6C8" transform="translate(572,167)"/>
<path d="M0 0 C1.77074917 -0.02705729 3.54161711 -0.04642195 5.3125 -0.0625 C6.29863281 -0.07410156 7.28476562 -0.08570313 8.30078125 -0.09765625 C11 0 11 0 14 1 C13.67 1.99 13.34 2.98 13 4 C11.02 4.33 9.04 4.66 7 5 C6.67 4.01 6.34 3.02 6 2 C5.01 3.485 5.01 3.485 4 5 C4 3.68 4 2.36 4 1 C3.34 1 2.68 1 2 1 C1.67 2.32 1.34 3.64 1 5 C0.67 5 0.34 5 0 5 C0 3.35 0 1.7 0 0 Z " fill="#9CADCD" transform="translate(264,734)"/>
<path d="M0 0 C0.99 0 1.98 0 3 0 C3.99 2.97 4.98 5.94 6 9 C4.02 8.34 2.04 7.68 0 7 C0 7.66 0 8.32 0 9 C-0.99 8.67 -1.98 8.34 -3 8 C-2.01 5.36 -1.02 2.72 0 0 Z " fill="#728BB8" transform="translate(111,166)"/>
<path d="M0 0 C2.64 0 5.28 0 8 0 C7.67 1.98 7.34 3.96 7 6 C4.69 6 2.38 6 0 6 C-1 3 -1 3 0 0 Z " fill="#758EB9" transform="translate(359,785)"/>
<path d="M0 0 C0 1.65 0 3.3 0 5 C-1.9914056 5.38133299 -3.99279077 5.71325582 -6 6 C-7 5 -7 5 -7.0625 2.4375 C-7.041875 1.633125 -7.02125 0.82875 -7 0 C-4.3333581 -1.33332095 -2.83319697 -0.67102033 0 0 Z " fill="#838383" transform="translate(492,691)"/>
<path d="M0 0 C3.66666667 0 7.33333333 0 11 0 C11 1.32 11 2.64 11 4 C6.25 5.125 6.25 5.125 4 4 C3.67 4.99 3.34 5.98 3 7 C2.34 6.67 1.68 6.34 1 6 C0.375 2.9375 0.375 2.9375 0 0 Z " fill="#778FBA" transform="translate(328,796)"/>
<path d="M0 0 C0.99 0.33 1.98 0.66 3 1 C3.6875 3.0625 3.6875 3.0625 4 5 C4.66 5 5.32 5 6 5 C6.66 3.35 7.32 1.7 8 0 C8.66 0 9.32 0 10 0 C8.125 4.875 8.125 4.875 7 6 C6.76924918 7.34747084 6.58846937 8.70377565 6.4375 10.0625 C6.293125 11.361875 6.14875 12.66125 6 14 C5.34 14 4.68 14 4 14 C3.896875 12.7625 3.79375 11.525 3.6875 10.25 C3.2576881 6.672448 2.42223091 4.73817407 0 2 C0 1.34 0 0.68 0 0 Z " fill="#5473A9" transform="translate(376,752)"/>
<path d="M0 0 C2.625 0.375 2.625 0.375 5 1 C5.042721 2.66611905 5.04063832 4.33382885 5 6 C4 7 4 7 1.4375 7.0625 C0.2309375 7.0315625 0.2309375 7.0315625 -1 7 C-1.625 4.625 -1.625 4.625 -2 2 C-1.34 1.34 -0.68 0.68 0 0 Z " fill="#848484" transform="translate(583,416)"/>
<path d="M0 0 C1.67542976 0.28604898 3.34385343 0.61781233 5 1 C5.625 2.875 5.625 2.875 6 5 C5.34 5.66 4.68 6.32 4 7 C1.375 6.625 1.375 6.625 -1 6 C-1.042721 4.33388095 -1.04063832 2.66617115 -1 1 C-0.67 0.67 -0.34 0.34 0 0 Z " fill="#93A6C8" transform="translate(582,278)"/>
<path d="M0 0 C0.598125 0.185625 1.19625 0.37125 1.8125 0.5625 C4.16408762 1.22093687 4.16408762 1.22093687 7 0 C7.33 2.31 7.66 4.62 8 7 C5 7 2 7 -1 7 C-0.67 4.69 -0.34 2.38 0 0 Z " fill="#5775AA" transform="translate(141,278)"/>
<path d="M0 0 C0.33 0 0.66 0 1 0 C1 2.97 1 5.94 1 9 C-1.31 8.67 -3.62 8.34 -6 8 C-6 6.68 -6 5.36 -6 4 C-4.35 3.67 -2.7 3.34 -1 3 C-0.67 2.01 -0.34 1.02 0 0 Z " fill="#969CA4" transform="translate(128,240)"/>
<path d="M0 0 C1.4540625 0.0309375 1.4540625 0.0309375 2.9375 0.0625 C2.9375 2.0425 2.9375 4.0225 2.9375 6.0625 C0.9575 6.0625 -1.0225 6.0625 -3.0625 6.0625 C-3.44468767 4.40635343 -3.77645102 2.73792976 -4.0625 1.0625 C-3.0625 0.0625 -3.0625 0.0625 0 0 Z " fill="#9CA2A9" transform="translate(85.0625,205.9375)"/>
<path d="M0 0 C1.4540625 0.0309375 1.4540625 0.0309375 2.9375 0.0625 C2.9375 2.0425 2.9375 4.0225 2.9375 6.0625 C0.9575 6.0625 -1.0225 6.0625 -3.0625 6.0625 C-3.44468767 4.40635343 -3.77645102 2.73792976 -4.0625 1.0625 C-3.0625 0.0625 -3.0625 0.0625 0 0 Z " fill="#9CA2AA" transform="translate(110.0625,187.9375)"/>
<path d="M0 0 C1.134375 0.020625 2.26875 0.04125 3.4375 0.0625 C2.4475 0.5575 2.4475 0.5575 1.4375 1.0625 C1.4375 1.7225 1.4375 2.3825 1.4375 3.0625 C2.0975 3.0625 2.7575 3.0625 3.4375 3.0625 C3.1075 4.0525 2.7775 5.0425 2.4375 6.0625 C0.1275 6.0625 -2.1825 6.0625 -4.5625 6.0625 C-4.605221 4.39638095 -4.60313832 2.72867115 -4.5625 1.0625 C-3.5625 0.0625 -3.5625 0.0625 0 0 Z " fill="#828282" transform="translate(141.5625,388.9375)"/>
<path d="M0 0 C2.97 0.33 5.94 0.66 9 1 C9 2.65 9 4.3 9 6 C8.01 5.67 7.02 5.34 6 5 C4.65737935 5.29369827 3.32303717 5.6278958 2 6 C1.01 6 0.02 6 -1 6 C-0.67 4.02 -0.34 2.04 0 0 Z " fill="#6782B2" transform="translate(362,774)"/>
<path d="M0 0 C2.97 0.495 2.97 0.495 6 1 C6.33 2.65 6.66 4.3 7 6 C6.01 6.33 5.02 6.66 4 7 C4 6.34 4 5.68 4 5 C3.34 5 2.68 5 2 5 C1.67 6.65 1.34 8.3 1 10 C-1.56687367 6.1496895 -0.83288724 4.41430237 0 0 Z " fill="#D1D1D1" transform="translate(74,369)"/>
<path d="M0 0 C-0.33 1.65 -0.66 3.3 -1 5 C-2.65 5 -4.3 5 -6 5 C-6.33 3.35 -6.66 1.7 -7 0 C-4.3333581 -1.33332095 -2.83319697 -0.67102033 0 0 Z " fill="#A4A9B0" transform="translate(115,207)"/>
<path d="M0 0 C0.66 0 1.32 0 2 0 C2.66 1.32 3.32 2.64 4 4 C5.32 2.68 6.64 1.36 8 0 C8.33 2.64 8.66 5.28 9 8 C8.34 7.01 7.68 6.02 7 5 C6.01 5.99 5.02 6.98 4 8 C3.34 7.01 2.68 6.02 2 5 C1.34 5.99 0.68 6.98 0 8 C0 5.36 0 2.72 0 0 Z " fill="#585858" transform="translate(94,333)"/>
<path d="M0 0 C2.475 0.495 2.475 0.495 5 1 C5.625 2.875 5.625 2.875 6 5 C5.34 5.66 4.68 6.32 4 7 C2.68 7 1.36 7 0 7 C0 4.69 0 2.38 0 0 Z " fill="#7991BC" transform="translate(590,241)"/>
<path d="M0 0 C2.475 0.495 2.475 0.495 5 1 C5.625 2.875 5.625 2.875 6 5 C5.34 5.66 4.68 6.32 4 7 C2.68 7 1.36 7 0 7 C0 4.69 0 2.38 0 0 Z " fill="#7991BC" transform="translate(564,241)"/>
<path d="M0 0 C2.475 0.495 2.475 0.495 5 1 C5.625 2.875 5.625 2.875 6 5 C5.34 5.66 4.68 6.32 4 7 C2.68 7 1.36 7 0 7 C0 4.69 0 2.38 0 0 Z " fill="#7991BC" transform="translate(545,167)"/>
<path d="M0 0 C1.65 0 3.3 0 5 0 C5.33 1.65 5.66 3.3 6 5 C5.38125 5.12375 4.7625 5.2475 4.125 5.375 C1.80879168 5.87197356 1.80879168 5.87197356 0 8 C0 5.36 0 2.72 0 0 Z " fill="#838383" transform="translate(99,316)"/>
<path d="M0 0 C3.3 0 6.6 0 10 0 C9.67 1.65 9.34 3.3 9 5 C7.35 5 5.7 5 4 5 C4 4.34 4 3.68 4 3 C2.68 2.67 1.36 2.34 0 2 C0 1.34 0 0.68 0 0 Z " fill="#768EBA" transform="translate(315,796)"/>
<path d="M0 0 C0.66 0 1.32 0 2 0 C2.33 0.66 2.66 1.32 3 2 C3.33 1.34 3.66 0.68 4 0 C4.66 0 5.32 0 6 0 C6 2.31 6 4.62 6 7 C4 7 2 7 0 7 C0 4.69 0 2.38 0 0 Z " fill="#444444" transform="translate(309,416)"/>
<path d="M0 0 C1.2065625 0.0309375 1.2065625 0.0309375 2.4375 0.0625 C2.4375 2.0425 2.4375 4.0225 2.4375 6.0625 C0.7875 6.0625 -0.8625 6.0625 -2.5625 6.0625 C-2.94468767 4.40635343 -3.27645102 2.73792976 -3.5625 1.0625 C-2.5625 0.0625 -2.5625 0.0625 0 0 Z " fill="#878787" transform="translate(83.5625,352.9375)"/>
<path d="M0 0 C1.2065625 0.0309375 1.2065625 0.0309375 2.4375 0.0625 C2.4375 2.0425 2.4375 4.0225 2.4375 6.0625 C0.7875 6.0625 -0.8625 6.0625 -2.5625 6.0625 C-2.94468767 4.40635343 -3.27645102 2.73792976 -3.5625 1.0625 C-2.5625 0.0625 -2.5625 0.0625 0 0 Z " fill="#878787" transform="translate(107.5625,334.9375)"/>
<path d="M0 0 C1.2065625 0.0309375 1.2065625 0.0309375 2.4375 0.0625 C2.4375 2.0425 2.4375 4.0225 2.4375 6.0625 C0.7875 6.0625 -0.8625 6.0625 -2.5625 6.0625 C-2.94468767 4.40635343 -3.27645102 2.73792976 -3.5625 1.0625 C-2.5625 0.0625 -2.5625 0.0625 0 0 Z " fill="#888888" transform="translate(174.5625,298.9375)"/>
<path d="M0 0 C0.763125 0.350625 1.52625 0.70125 2.3125 1.0625 C5.04759379 2.32360884 5.04759379 2.32360884 8 1 C8 2.32 8 3.64 8 5 C5.36 5 2.72 5 0 5 C-0.5625 3.0625 -0.5625 3.0625 -1 1 C-0.67 0.67 -0.34 0.34 0 0 Z " fill="#9CAECD" transform="translate(443,775)"/>
<path d="M0 0 C0.763125 0.350625 1.52625 0.70125 2.3125 1.0625 C5.04759379 2.32360884 5.04759379 2.32360884 8 1 C8 2.32 8 3.64 8 5 C5.36 5 2.72 5 0 5 C-0.5625 3.0625 -0.5625 3.0625 -1 1 C-0.67 0.67 -0.34 0.34 0 0 Z " fill="#9CAECD" transform="translate(308,775)"/>
<path d="M0 0 C2.475 0.495 2.475 0.495 5 1 C5 2.65 5 4.3 5 6 C3.35 6.33 1.7 6.66 0 7 C0 4.69 0 2.38 0 0 Z " fill="#5F5F5F" transform="translate(255,416)"/>
<path d="M0 0 C0.721875 0.185625 1.44375 0.37125 2.1875 0.5625 C5.12826973 1.01995307 7.14103058 0.73516357 10 0 C10.33 0.99 10.66 1.98 11 3 C9.35 3 7.7 3 6 3 C5.67 3.66 5.34 4.32 5 5 C4.01 5.33 3.02 5.66 2 6 C2 4.35 2 2.7 2 1 C1.34 0.67 0.68 0.34 0 0 Z " fill="#696969" transform="translate(191,299)"/>
<path d="M0 0 C2.31 0 4.62 0 7 0 C7 1.32 7 2.64 7 4 C7.66 4.33 8.32 4.66 9 5 C6.03 5 3.06 5 0 5 C0 3.33333333 0 1.66666667 0 0 Z " fill="#6581B2" transform="translate(391,796)"/>
<path d="M0 0 C1.65 0.33 3.3 0.66 5 1 C4.67 2.65 4.34 4.3 4 6 C2.35 5.67 0.7 5.34 -1 5 C-0.67 3.35 -0.34 1.7 0 0 Z " fill="#777777" transform="translate(131,389)"/>
<path d="M0 0 C1.65 0.33 3.3 0.66 5 1 C4.67 2.65 4.34 4.3 4 6 C2.35 5.67 0.7 5.34 -1 5 C-0.67 3.35 -0.34 1.7 0 0 Z " fill="#8F8F8F" transform="translate(107,353)"/>
<path d="M0 0 C1.65 0.33 3.3 0.66 5 1 C4.67 2.65 4.34 4.3 4 6 C2.35 5.67 0.7 5.34 -1 5 C-0.67 3.35 -0.34 1.7 0 0 Z " fill="#777777" transform="translate(131,299)"/>
<path d="M0 0 C0.66 0 1.32 0 2 0 C3.625 2 3.625 2 5 4 C5.66 2.68 6.32 1.36 7 0 C7 2.64 7 5.28 7 8 C5.68 7.01 4.36 6.02 3 5 C2.67 5.99 2.34 6.98 2 8 C1.34 8 0.68 8 0 8 C0 5.36 0 2.72 0 0 Z " fill="#7E7E7E" transform="translate(104,297)"/>
<path d="M0 0 C2.625 0.375 2.625 0.375 5 1 C5 1.66 5 2.32 5 3 C4.01 3.495 4.01 3.495 3 4 C5.97 4.495 5.97 4.495 9 5 C5.8035914 6.06546953 3.34252724 6.07427838 0 6 C-0.66 4.68 -1.32 3.36 -2 2 C-1.34 1.34 -0.68 0.68 0 0 Z " fill="#6A737F" transform="translate(135,243)"/>
<path d="M0 0 C2.31 0 4.62 0 7 0 C7 1.65 7 3.3 7 5 C4.36 5 1.72 5 -1 5 C-0.67 3.35 -0.34 1.7 0 0 Z " fill="#6C87B5" transform="translate(296,775)"/>
<path d="M0 0 C0.99 1.485 0.99 1.485 2 3 C2.66 2.01 3.32 1.02 4 0 C5.65 0.33 7.3 0.66 9 1 C9 2.32 9 3.64 9 5 C6.03 5 3.06 5 0 5 C0 3.35 0 1.7 0 0 Z " fill="#5674AA" transform="translate(271,775)"/>
<path d="M0 0 C2.97 0 5.94 0 9 0 C9.33 0.99 9.66 1.98 10 3 C6.7 3.66 3.4 4.32 0 5 C0 3.33333333 0 1.66666667 0 0 Z " fill="#738CB8" transform="translate(251,734)"/>
<path d="M0 0 C2.125 0.375 2.125 0.375 4 1 C4 2.32 4 3.64 4 5 C2.35 5.33 0.7 5.66 -1 6 C-1.625 4.125 -1.625 4.125 -2 2 C-1.34 1.34 -0.68 0.68 0 0 Z " fill="#939393" transform="translate(83,316)"/>
<path d="M0 0 C0.66 0 1.32 0 2 0 C2 1.32 2 2.64 2 4 C3.32 4 4.64 4 6 4 C6.33 2.68 6.66 1.36 7 0 C7 2.97 7 5.94 7 9 C6.67 7.68 6.34 6.36 6 5 C4.68 5 3.36 5 2 5 C2 6.32 2 7.64 2 9 C1.34 9 0.68 9 0 9 C0 6.03 0 3.06 0 0 Z " fill="#78808B" transform="translate(139,203)"/>
<path d="M0 0 C0.66 0 1.32 0 2 0 C2 1.32 2 2.64 2 4 C3.32 4 4.64 4 6 4 C6.33 2.68 6.66 1.36 7 0 C7 2.97 7 5.94 7 9 C6.67 7.68 6.34 6.36 6 5 C4.68 5 3.36 5 2 5 C2 6.32 2 7.64 2 9 C1.34 9 0.68 9 0 9 C0 6.03 0 3.06 0 0 Z " fill="#78808B" transform="translate(73,203)"/>
<path d="M0 0 C3 1 3 1 4.75 3.375 C6 6 6 6 5 9 C4.34 8.01 3.68 7.02 3 6 C2.67 6.99 2.34 7.98 2 9 C1.34 9 0.68 9 0 9 C0 6.03 0 3.06 0 0 Z " fill="#4567A1" transform="translate(137,166)"/>
<path d="M0 0 C2.475 0.495 2.475 0.495 5 1 C4.67 2.32 4.34 3.64 4 5 C3.34 5 2.68 5 2 5 C2 6.32 2 7.64 2 9 C1.34 9 0.68 9 0 9 C0 6.03 0 3.06 0 0 Z " fill="#5775AB" transform="translate(103,166)"/>
<path d="M0 0 C1.65 0 3.3 0 5 0 C5 1.98 5 3.96 5 6 C3.35 6 1.7 6 0 6 C0 4.02 0 2.04 0 0 Z " fill="#738CB9" transform="translate(425,785)"/>
<path d="M0 0 C1.2065625 0.0309375 1.2065625 0.0309375 2.4375 0.0625 C2.1075 1.7125 1.7775 3.3625 1.4375 5.0625 C0.1175 5.0625 -1.2025 5.0625 -2.5625 5.0625 C-2.8925 5.7225 -3.2225 6.3825 -3.5625 7.0625 C-3.60504356 5.06295254 -3.60330783 3.06208364 -3.5625 1.0625 C-2.5625 0.0625 -2.5625 0.0625 0 0 Z " fill="#8DA2C6" transform="translate(330.5625,733.9375)"/>
<path d="M0 0 C1.32 0 2.64 0 4 0 C4 2.64 4 5.28 4 8 C2.68 8 1.36 8 0 8 C0 5.36 0 2.72 0 0 Z " fill="#999999" transform="translate(96,387)"/>
<path d="M0 0 C1.32 0.66 2.64 1.32 4 2 C3.67 3.32 3.34 4.64 3 6 C1.68 6 0.36 6 -1 6 C-1.625 4.125 -1.625 4.125 -2 2 C-1.34 1.34 -0.68 0.68 0 0 Z " fill="#F0F3F7" transform="translate(86,167)"/>
<path d="M0 0 C2.5 1.75 2.5 1.75 5 4 C5 5.32 5 6.64 5 8 C4.34 8 3.68 8 3 8 C3 7.34 3 6.68 3 6 C1.35 6 -0.3 6 -2 6 C-1.125 1.125 -1.125 1.125 0 0 Z " fill="#737373" transform="translate(107,387)"/>
<path d="M0 0 C0.99 0 1.98 0 3 0 C3.33 0.66 3.66 1.32 4 2 C4.78375 1.79375 5.5675 1.5875 6.375 1.375 C7.674375 1.189375 7.674375 1.189375 9 1 C9.66 1.66 10.32 2.32 11 3 C9.35 3.33 7.7 3.66 6 4 C7.32 4 8.64 4 10 4 C10 4.66 10 5.32 10 6 C7.36 6 4.72 6 2 6 C2 4.35 2 2.7 2 1 C1.34 0.67 0.68 0.34 0 0 Z " fill="#535353" transform="translate(151,316)"/>
<path d="M0 0 C1.65 0.33 3.3 0.66 5 1 C5.33 2.32 5.66 3.64 6 5 C3 7 3 7 -1 7 C-0.67 4.69 -0.34 2.38 0 0 Z " fill="#5D7AAD" transform="translate(104,278)"/>
<path d="M0 0 C1.32 0 2.64 0 4 0 C4.33 2.31 4.66 4.62 5 7 C3.35 7 1.7 7 0 7 C0 4.69 0 2.38 0 0 Z " fill="#5F7CAF" transform="translate(118,278)"/>
<path d="M0 0 C3.19902639 -0.08886184 5.92677456 0.08941469 9 1 C9 1.99 9 2.98 9 4 C4.545 4.495 4.545 4.495 0 5 C0.33 4.34 0.66 3.68 1 3 C1.66 3.33 2.32 3.66 3 4 C3 3.01 3 2.02 3 1 C2.01 1.33 1.02 1.66 0 2 C0 1.34 0 0.68 0 0 Z " fill="#7B93BD" transform="translate(366,796)"/>
<path d="M0 0 C1.2065625 0.0309375 1.2065625 0.0309375 2.4375 0.0625 C2.4375 1.7125 2.4375 3.3625 2.4375 5.0625 C0.7875 5.0625 -0.8625 5.0625 -2.5625 5.0625 C-3.125 3.125 -3.125 3.125 -3.5625 1.0625 C-2.5625 0.0625 -2.5625 0.0625 0 0 Z " fill="#92A6C8" transform="translate(349.5625,733.9375)"/>
<path d="M0 0 C0.66 0 1.32 0 2 0 C2 0.99 2 1.98 2 3 C2.66 3 3.32 3 4 3 C4 2.01 4 1.02 4 0 C4.66 0 5.32 0 6 0 C6.33 2.31 6.66 4.62 7 7 C6.34 6.34 5.68 5.68 5 5 C4.67 5.66 4.34 6.32 4 7 C3.34 7 2.68 7 2 7 C0.5393715 4.35261084 0 3.10551666 0 0 Z " fill="#303030" transform="translate(573,416)"/>
<path d="M0 0 C0.99 0.33 1.98 0.66 3 1 C2.34 1 1.68 1 1 1 C1 1.66 1 2.32 1 3 C1.99 3.33 2.98 3.66 4 4 C3.67 5.32 3.34 6.64 3 8 C1.68 7.67 0.36 7.34 -1 7 C-1.04254356 5.00045254 -1.04080783 2.99958364 -1 1 C-0.67 0.67 -0.34 0.34 0 0 Z " fill="#717171" transform="translate(131,369)"/>
<path d="M0 0 C2.475 0.495 2.475 0.495 5 1 C4.67 2.65 4.34 4.3 4 6 C2.68 6 1.36 6 0 6 C0 4.02 0 2.04 0 0 Z " fill="#F2F2F2" transform="translate(149,298)"/>
<path d="M0 0 C0.99 0 1.98 0 3 0 C4.0625 1.8125 4.0625 1.8125 5 4 C4.67 4.99 4.34 5.98 4 7 C2.68 6.34 1.36 5.68 0 5 C0 5.66 0 6.32 0 7 C-0.66 7 -1.32 7 -2 7 C-1.34 4.69 -0.68 2.38 0 0 Z " fill="#5C79AD" transform="translate(572,241)"/>
<path d="M0 0 C1.32 0.99 2.64 1.98 4 3 C3.67 4.32 3.34 5.64 3 7 C1.35 6.67 -0.3 6.34 -2 6 C-1.125 1.125 -1.125 1.125 0 0 Z " fill="#949BA3" transform="translate(181,205)"/>
<path d="M0 0 C0.99 0 1.98 0 3 0 C4.0625 1.8125 4.0625 1.8125 5 4 C4.67 4.99 4.34 5.98 4 7 C2.68 6.34 1.36 5.68 0 5 C0 5.66 0 6.32 0 7 C-0.66 7 -1.32 7 -2 7 C-1.34 4.69 -0.68 2.38 0 0 Z " fill="#5C79AD" transform="translate(553,167)"/>
<path d="M0 0 C0.598125 0.165 1.19625 0.33 1.8125 0.5 C4.11344336 1.1114124 4.11344336 1.1114124 7 1 C6.34 3.64 5.68 6.28 5 9 C4.34 9 3.68 9 3 9 C2 6 1 3 0 0 Z " fill="#5976AB" transform="translate(126,166)"/>
<path d="M0 0 C1.32 0 2.64 0 4 0 C4 1.65 4 3.3 4 5 C4.66 5.33 5.32 5.66 6 6 C3.69 6 1.38 6 -1 6 C-0.67 4.02 -0.34 2.04 0 0 Z " fill="#6E88B6" transform="translate(397,785)"/>
<path d="M0 0 C1.485 0.99 1.485 0.99 3 2 C3.33 1.34 3.66 0.68 4 0 C4.66 0 5.32 0 6 0 C6 2.31 6 4.62 6 7 C5.34 7 4.68 7 4 7 C3.34 6.01 2.68 5.02 2 4 C1.34 4.99 0.68 5.98 0 7 C0 4.69 0 2.38 0 0 Z " fill="#7D94BD" transform="translate(462,732)"/>
<path d="M0 0 C0.33 0.99 0.66 1.98 1 3 C1.99 3 2.98 3 4 3 C4 2.01 4 1.02 4 0 C4.66 0 5.32 0 6 0 C6 2.64 6 5.28 6 8 C5.34 8 4.68 8 4 8 C4 6.68 4 5.36 4 4 C3.01 4 2.02 4 1 4 C0.67 5.32 0.34 6.64 0 8 C0 5.36 0 2.72 0 0 Z " fill="#787878" transform="translate(136,351)"/>
<path d="M0 0 C2.625 0.375 2.625 0.375 5 1 C5 1.66 5 2.32 5 3 C4.01 3.495 4.01 3.495 3 4 C3.66 4.33 4.32 4.66 5 5 C3.35 5.33 1.7 5.66 0 6 C-0.66 4.68 -1.32 3.36 -2 2 C-1.34 1.34 -0.68 0.68 0 0 Z " fill="#6A737F" transform="translate(141,188)"/>
<path d="M0 0 C1.65 0 3.3 0 5 0 C4.01 0.33 3.02 0.66 2 1 C2 1.99 2 2.98 2 4 C2.99 4.33 3.98 4.66 5 5 C4.01 5 3.02 5 2 5 C2 5.99 2 6.98 2 8 C2.99 8.33 3.98 8.66 5 9 C3.35 9 1.7 9 0 9 C0 6.03 0 3.06 0 0 Z " fill="#4264A0" transform="translate(164,166)"/>
<path d="M0 0 C1.65 0.33 3.3 0.66 5 1 C4.67 2.32 4.34 3.64 4 5 C2.35 4.67 0.7 4.34 -1 4 C-0.67 2.68 -0.34 1.36 0 0 Z " fill="#98ABCB" transform="translate(375,734)"/>
<path d="M0 0 C2.97 0 5.94 0 9 0 C9 0.99 9 1.98 9 3 C8.01 3.33 7.02 3.66 6 4 C5.34 3.67 4.68 3.34 4 3 C2.68 3 1.36 3 0 3 C0 2.01 0 1.02 0 0 Z " fill="#CFD8E7" transform="translate(436,735)"/>
<path d="M0 0 C1.32 0 2.64 0 4 0 C4 1.98 4 3.96 4 6 C2.68 6 1.36 6 0 6 C0 4.02 0 2.04 0 0 Z " fill="#606060" transform="translate(590,416)"/>
<path d="M0 0 C0.66 0 1.32 0 2 0 C2.33 0.66 2.66 1.32 3 2 C3.66 1.34 4.32 0.68 5 0 C5 2.31 5 4.62 5 7 C3.33333333 7 1.66666667 7 0 7 C0 4.69 0 2.38 0 0 Z " fill="#4667A2" transform="translate(126,278)"/>
<path d="M0 0 C1.65 0.33 3.3 0.66 5 1 C4.67 2.32 4.34 3.64 4 5 C2.35 4.67 0.7 4.34 -1 4 C-0.67 2.68 -0.34 1.36 0 0 Z " fill="#C3CEE1" transform="translate(608,205)"/>
<path d="M0 0 C0.66 0 1.32 0 2 0 C2.33 0.66 2.66 1.32 3 2 C3.66 1.34 4.32 0.68 5 0 C5 2.31 5 4.62 5 7 C3.33333333 7 1.66666667 7 0 7 C0 4.69 0 2.38 0 0 Z " fill="#4667A2" transform="translate(558,204)"/>
<path d="M0 0 C0.66 0 1.32 0 2 0 C2.33 0.66 2.66 1.32 3 2 C3.66 1.34 4.32 0.68 5 0 C5 2.31 5 4.62 5 7 C3.33333333 7 1.66666667 7 0 7 C0 4.69 0 2.38 0 0 Z " fill="#4667A2" transform="translate(590,167)"/>
<path d="M0 0 C0.99 0.33 1.98 0.66 3 1 C4.1875 4.0625 4.1875 4.0625 5 7 C4.34 7 3.68 7 3 7 C3 6.34 3 5.68 3 5 C2.01 5 1.02 5 0 5 C0 5.66 0 6.32 0 7 C-0.66 7 -1.32 7 -2 7 C-1.34 4.69 -0.68 2.38 0 0 Z " fill="#353535" transform="translate(499,690)"/>
<path d="M0 0 C1.42944945 2.35438733 2.08661261 3.48032433 1.625 6.25 C1.41875 6.8275 1.2125 7.405 1 8 C-0.32 7.67 -1.64 7.34 -3 7 C-2.38722388 4.03824877 -1.74627478 2.61941217 0 0 Z " fill="#777777" transform="translate(117,369)"/>
<path d="M0 0 C1.67542976 0.28604898 3.34385343 0.61781233 5 1 C5 1.66 5 2.32 5 3 C4.01 3.495 4.01 3.495 3 4 C3.66 4.33 4.32 4.66 5 5 C3.35 5.33 1.7 5.66 0 6 C-0.38218767 4.34385343 -0.71395102 2.67542976 -1 1 C-0.67 0.67 -0.34 0.34 0 0 Z " fill="#505050" transform="translate(144,335)"/>
<path d="M0 0 C1.65 0 3.3 0 5 0 C4.67 1.65 4.34 3.3 4 5 C2.35 4.67 0.7 4.34 -1 4 C-0.67 2.68 -0.34 1.36 0 0 Z " fill="#7B92BC" transform="translate(462,775)"/>
<path d="M0 0 C1.65 0 3.3 0 5 0 C4.67 1.65 4.34 3.3 4 5 C2.35 4.67 0.7 4.34 -1 4 C-0.67 2.68 -0.34 1.36 0 0 Z " fill="#7B92BC" transform="translate(425,775)"/>
<path d="M0 0 C0.66 0 1.32 0 2 0 C2 2.64 2 5.28 2 8 C0.02 8 -1.96 8 -4 8 C-3.67 7.34 -3.34 6.68 -3 6 C-2.01 6.33 -1.02 6.66 0 7 C0 5.68 0 4.36 0 3 C-0.99 2.67 -1.98 2.34 -3 2 C-2.01 2 -1.02 2 0 2 C0 1.34 0 0.68 0 0 Z " fill="#636363" transform="translate(124,387)"/>
<path d="M0 0 C0.33 0.66 0.66 1.32 1 2 C2.32 2 3.64 2 5 2 C4.67 3.98 4.34 5.96 4 8 C2.68 8 1.36 8 0 8 C-1.125 2.25 -1.125 2.25 0 0 Z " fill="#696969" transform="translate(130,333)"/>
<path d="M0 0 C2.97 0.495 2.97 0.495 6 1 C6 2.65 6 4.3 6 6 C5.34 6 4.68 6 4 6 C3.67 5.01 3.34 4.02 3 3 C2.67 3.99 2.34 4.98 2 6 C1.34 6 0.68 6 0 6 C0 4.02 0 2.04 0 0 Z " fill="#909090" transform="translate(178,299)"/>
<path d="M0 0 C1.2065625 0.0309375 1.2065625 0.0309375 2.4375 0.0625 C2.4375 1.7125 2.4375 3.3625 2.4375 5.0625 C0.7875 5.0625 -0.8625 5.0625 -2.5625 5.0625 C-3.125 3.125 -3.125 3.125 -3.5625 1.0625 C-2.5625 0.0625 -2.5625 0.0625 0 0 Z " fill="#6E88B6" transform="translate(349.5625,795.9375)"/>
<path d="M0 0 C0.99 0 1.98 0 3 0 C3 1.98 3 3.96 3 6 C0.69 6 -1.62 6 -4 6 C-3.34 5.67 -2.68 5.34 -2 5 C-0.88214887 2.88214887 -0.88214887 2.88214887 0 0 Z " fill="#5473A9" transform="translate(439,785)"/>
<path d="M0 0 C1.67542976 0.28604898 3.34385343 0.61781233 5 1 C5 2.32 5 3.64 5 5 C3.35 5 1.7 5 0 5 C-0.5625 3.0625 -0.5625 3.0625 -1 1 C-0.67 0.67 -0.34 0.34 0 0 Z " fill="#6D87B5" transform="translate(486,734)"/>
<path d="M0 0 C2.64 0 5.28 0 8 0 C8 0.99 8 1.98 8 3 C2.25 4.125 2.25 4.125 0 3 C0 2.01 0 1.02 0 0 Z " fill="#BECADE" transform="translate(361,797)"/>
<path d="M0 0 C1.32 0 2.64 0 4 0 C4 1.32 4 2.64 4 4 C3.34 4 2.68 4 2 4 C2 4.99 2 5.98 2 7 C1.34 7 0.68 7 0 7 C0 4.69 0 2.38 0 0 Z " fill="#4B4B4B" transform="translate(288,416)"/>
<path d="M0 0 C2.475 0.495 2.475 0.495 5 1 C5 2.65 5 4.3 5 6 C4.34 6 3.68 6 3 6 C2.67 5.01 2.34 4.02 2 3 C1.34 3.99 0.68 4.98 0 6 C0 4.02 0 2.04 0 0 Z " fill="#6D6D6D" transform="translate(89,316)"/>
<path d="M0 0 C1.32 0.66 2.64 1.32 4 2 C3.67 3.32 3.34 4.64 3 6 C1.68 5.67 0.36 5.34 -1 5 C-0.67 3.35 -0.34 1.7 0 0 Z " fill="#8B929B" transform="translate(118,225)"/>
<path d="M0 0 C0.99 0.33 1.98 0.66 3 1 C3.33 2.65 3.66 4.3 4 6 C2.02 6 0.04 6 -2 6 C-1.34 4.02 -0.68 2.04 0 0 Z " fill="#5B78AC" transform="translate(407,785)"/>
<path d="M0 0 C0.33 1.32 0.66 2.64 1 4 C2.65 4.33 4.3 4.66 6 5 C2.52176885 6.15941038 0.54104422 5.70820884 -3 5 C-1.125 1.125 -1.125 1.125 0 0 Z " fill="#4B6CA4" transform="translate(338,785)"/>
<path d="M0 0 C0.33 0 0.66 0 1 0 C1.625 3.375 1.625 3.375 2 7 C1.34 7.66 0.68 8.32 0 9 C0 8.34 0 7.68 0 7 C-0.99 7 -1.98 7 -3 7 C-1.125 2.25 -1.125 2.25 0 0 Z " fill="#656E7A" transform="translate(157,203)"/>
<path d="M0 0 C1.98 0 3.96 0 6 0 C6 1.98 6 3.96 6 6 C5.01 6 4.02 6 3 6 C3 4.35 3 2.7 3 1 C2.01 0.67 1.02 0.34 0 0 Z " fill="#818891" transform="translate(95,206)"/>
<path d="M0 0 C0.33 0.66 0.66 1.32 1 2 C2.65 1.67 4.3 1.34 6 1 C6.33 2.32 6.66 3.64 7 5 C5.02 4.34 3.04 3.68 1 3 C1 3.66 1 4.32 1 5 C0.01 4.67 -0.98 4.34 -2 4 C-1.34 2.68 -0.68 1.36 0 0 Z " fill="#5574AA" transform="translate(110,170)"/>
<path d="M0 0 C1.65 0 3.3 0 5 0 C5 0.66 5 1.32 5 2 C5.66 2 6.32 2 7 2 C7 2.99 7 3.98 7 5 C5.35 5 3.7 5 2 5 C2 3.68 2 2.36 2 1 C1.34 0.67 0.68 0.34 0 0 Z " fill="#5C79AD" transform="translate(310,796)"/>
<path d="M0 0 C0.66 0.66 1.32 1.32 2 2 C-0.49092811 3.24546405 -1.41080733 2.7767578 -4 2 C-4 2.99 -4 3.98 -4 5 C-2.68 5.33 -1.36 5.66 0 6 C-1.65 6 -3.3 6 -5 6 C-5.33 4.68 -5.66 3.36 -6 2 C-4.02 1.34 -2.04 0.68 0 0 Z " fill="#4B6BA4" transform="translate(473,774)"/>
<path d="M0 0 C1.32 0.33 2.64 0.66 4 1 C3.67 2.65 3.34 4.3 3 6 C2.01 6.33 1.02 6.66 0 7 C0 4.69 0 2.38 0 0 Z " fill="#282828" transform="translate(280,416)"/>
<path d="M0 0 C1.32 0.33 2.64 0.66 4 1 C3.34 1 2.68 1 2 1 C2 1.66 2 2.32 2 3 C2.66 3.33 3.32 3.66 4 4 C3.34 4 2.68 4 2 4 C2 4.66 2 5.32 2 6 C2.66 6.33 3.32 6.66 4 7 C2.68 7 1.36 7 0 7 C0 4.69 0 2.38 0 0 Z " fill="#4B6BA4" transform="translate(150,278)"/>
<path d="M0 0 C1.32 0.33 2.64 0.66 4 1 C3.34 1 2.68 1 2 1 C2 1.66 2 2.32 2 3 C2.66 3.33 3.32 3.66 4 4 C3.34 4 2.68 4 2 4 C2 4.66 2 5.32 2 6 C2.66 6.33 3.32 6.66 4 7 C2.68 7 1.36 7 0 7 C0 4.69 0 2.38 0 0 Z " fill="#4B6BA4" transform="translate(604,241)"/>
<path d="M0 0 C1.32 0.33 2.64 0.66 4 1 C3.34 1 2.68 1 2 1 C2 1.66 2 2.32 2 3 C2.66 3.33 3.32 3.66 4 4 C3.34 4 2.68 4 2 4 C2 4.66 2 5.32 2 6 C2.66 6.33 3.32 6.66 4 7 C2.68 7 1.36 7 0 7 C0 4.69 0 2.38 0 0 Z " fill="#4B6BA4" transform="translate(582,241)"/>
<path d="M0 0 C0.99 0 1.98 0 3 0 C3 2.97 3 5.94 3 9 C2.34 9 1.68 9 1 9 C0.67 6.03 0.34 3.06 0 0 Z " fill="#969DA5" transform="translate(91,222)"/>
<path d="M0 0 C1.32 0.33 2.64 0.66 4 1 C3.67 2.65 3.34 4.3 3 6 C2.01 5.67 1.02 5.34 0 5 C0 3.35 0 1.7 0 0 Z " fill="#959CA4" transform="translate(141,222)"/>
<path d="M0 0 C1.32 0.33 2.64 0.66 4 1 C3.34 1 2.68 1 2 1 C2 1.66 2 2.32 2 3 C2.66 3.33 3.32 3.66 4 4 C3.34 4 2.68 4 2 4 C2 4.66 2 5.32 2 6 C2.66 6.33 3.32 6.66 4 7 C2.68 7 1.36 7 0 7 C0 4.69 0 2.38 0 0 Z " fill="#4B6BA4" transform="translate(591,204)"/>
<path d="M0 0 C0.66 0 1.32 0 2 0 C3.10844919 3.32534757 2.84454356 5.62182575 2 9 C1.34 9 0.68 9 0 9 C-1.125 3.375 -1.125 3.375 0 0 Z " fill="#8D949D" transform="translate(155,185)"/>
<path d="M0 0 C0.99 0 1.98 0 3 0 C3 2.97 3 5.94 3 9 C2.34 9 1.68 9 1 9 C0.67 6.03 0.34 3.06 0 0 Z " fill="#969DA5" transform="translate(74,185)"/>
<path d="M0 0 C0.99 0 1.98 0 3 0 C6 3.33333333 6 3.33333333 6 6 C2.73045798 5.43628586 1.17424117 4.50037734 -1 2 C-0.67 1.34 -0.34 0.68 0 0 Z " fill="#778FBA" transform="translate(148,169)"/>
<path d="M0 0 C1.32 0.33 2.64 0.66 4 1 C3.34 1 2.68 1 2 1 C2 1.66 2 2.32 2 3 C2.66 3.33 3.32 3.66 4 4 C3.34 4 2.68 4 2 4 C2 4.66 2 5.32 2 6 C2.66 6.33 3.32 6.66 4 7 C2.68 7 1.36 7 0 7 C0 4.69 0 2.38 0 0 Z " fill="#4B6BA4" transform="translate(623,167)"/>
<path d="M0 0 C1.32 0.33 2.64 0.66 4 1 C3.34 1 2.68 1 2 1 C2 1.66 2 2.32 2 3 C2.66 3.33 3.32 3.66 4 4 C3.34 4 2.68 4 2 4 C2 4.66 2 5.32 2 6 C2.66 6.33 3.32 6.66 4 7 C2.68 7 1.36 7 0 7 C0 4.69 0 2.38 0 0 Z " fill="#4B6BA4" transform="translate(563,167)"/>
<path d="M0 0 C1.98 0.495 1.98 0.495 4 1 C4 2.32 4 3.64 4 5 C2.35 4.67 0.7 4.34 -1 4 C-0.67 2.68 -0.34 1.36 0 0 Z " fill="#5B79AD" transform="translate(386,796)"/>
<path d="M0 0 C0.99 0.33 1.98 0.66 3 1 C3.33 2.65 3.66 4.3 4 6 C2.35 5.67 0.7 5.34 -1 5 C-0.67 3.35 -0.34 1.7 0 0 Z " fill="#5977AC" transform="translate(289,785)"/>
<path d="M0 0 C1.98 0.495 1.98 0.495 4 1 C4 2.32 4 3.64 4 5 C2.35 4.67 0.7 4.34 -1 4 C-0.67 2.68 -0.34 1.36 0 0 Z " fill="#5675AA" transform="translate(435,775)"/>
<path d="M0 0 C0.33 0 0.66 0 1 0 C1 4.62 1 9.24 1 14 C0.01 13.34 -0.98 12.68 -2 12 C-2 11.34 -2 10.68 -2 10 C-1.34 10 -0.68 10 0 10 C0 6.7 0 3.4 0 0 Z " fill="#4667A1" transform="translate(356,752)"/>
<path d="M0 0 C1.65 0 3.3 0 5 0 C5 1.32 5 2.64 5 4 C3.35 4 1.7 4 0 4 C0 2.68 0 1.36 0 0 Z " fill="#B0BED7" transform="translate(353,735)"/>
<path d="M0 0 C2.0625 0.4375 2.0625 0.4375 4 1 C4 2.98 4 4.96 4 7 C3.67 7 3.34 7 3 7 C3 5.35 3 3.7 3 2 C0.48916886 3.25541557 0.12874554 4.50063488 -1 7 C-1.04254356 5.00045254 -1.04080783 2.99958364 -1 1 C-0.67 0.67 -0.34 0.34 0 0 Z " fill="#676767" transform="translate(143,369)"/>
<path d="M0 0 C0.66 0 1.32 0 2 0 C2 1.98 2 3.96 2 6 C0.35 6 -1.3 6 -3 6 C-2.01 4.02 -1.02 2.04 0 0 Z " fill="#939AA2" transform="translate(163,203)"/>
<path d="M0 0 C0.33 0 0.66 0 1 0 C1 4.62 1 9.24 1 14 C0.01 13.34 -0.98 12.68 -2 12 C-2 11.34 -2 10.68 -2 10 C-1.34 10 -0.68 10 0 10 C0 6.7 0 3.4 0 0 Z " fill="#4667A1" transform="translate(586,119)"/>
<path d="M0 0 C0.33 0.66 0.66 1.32 1 2 C1.99 2.33 2.98 2.66 4 3 C3.67 4.32 3.34 5.64 3 7 C2.01 7 1.02 7 0 7 C0 4.69 0 2.38 0 0 Z " fill="#7B92BC" transform="translate(381,794)"/>
<path d="M0 0 C0.66 0.33 1.32 0.66 2 1 C1.67 2.65 1.34 4.3 1 6 C0.01 5.67 -0.98 5.34 -2 5 C-2 3.68 -2 2.36 -2 1 C-1.34 0.67 -0.68 0.34 0 0 Z " fill="#ADBBD5" transform="translate(422,785)"/>
<path d="M0 0 C0.99 0 1.98 0 3 0 C3 1.65 3 3.3 3 5 C1.68 4.67 0.36 4.34 -1 4 C-0.67 2.68 -0.34 1.36 0 0 Z " fill="#849AC1" transform="translate(388,775)"/>
<path d="M0 0 C0.33 0 0.66 0 1 0 C1 1.98 1 3.96 1 6 C-0.65 6 -2.3 6 -4 6 C-2.69593116 3.98079663 -1.36176581 1.98075027 0 0 Z " fill="#606060" transform="translate(165,351)"/>
<path d="M0 0 C1.65 0.33 3.3 0.66 5 1 C5 1.66 5 2.32 5 3 C3.35 3 1.7 3 0 3 C-0.33 3.66 -0.66 4.32 -1 5 C-0.67 3.35 -0.34 1.7 0 0 Z " fill="#515151" transform="translate(137,335)"/>
<path d="M0 0 C0.99 0 1.98 0 3 0 C3 1.65 3 3.3 3 5 C1.68 4.67 0.36 4.34 -1 4 C-0.67 2.68 -0.34 1.36 0 0 Z " fill="#F3F5F9" transform="translate(574,205)"/>
<path d="M0 0 C1.32 0.33 2.64 0.66 4 1 C3.34 1 2.68 1 2 1 C2 1.66 2 2.32 2 3 C2.66 3.33 3.32 3.66 4 4 C3.34 4 2.68 4 2 4 C2 4.99 2 5.98 2 7 C1.34 7 0.68 7 0 7 C0 4.69 0 2.38 0 0 Z " fill="#5675AA" transform="translate(580,167)"/>
<path d="M0 0 C0.99 0 1.98 0 3 0 C3 1.65 3 3.3 3 5 C1.68 4.67 0.36 4.34 -1 4 C-0.67 2.68 -0.34 1.36 0 0 Z " fill="#F3F5F9" transform="translate(606,168)"/>
<path d="M0 0 C2.31 0 4.62 0 7 0 C5.75 1.5 5.75 1.5 4 3 C2.68 3 1.36 3 0 3 C0 2.01 0 1.02 0 0 Z " fill="#5D7BAE" transform="translate(330,775)"/>
<path d="M0 0 C1.32 0 2.64 0 4 0 C4 1.32 4 2.64 4 4 C2.35 3.67 0.7 3.34 -1 3 C-0.67 2.01 -0.34 1.02 0 0 Z " fill="#DADADA" transform="translate(120,390)"/>
<path d="M0 0 C0.66 0 1.32 0 2 0 C2 1.98 2 3.96 2 6 C1.01 6 0.02 6 -1 6 C-1.042721 4.33388095 -1.04063832 2.66617115 -1 1 C-0.67 0.67 -0.34 0.34 0 0 Z " fill="#C9C9C9" transform="translate(144,371)"/>
<path d="M0 0 C1.32 0 2.64 0 4 0 C4 1.32 4 2.64 4 4 C2.35 3.67 0.7 3.34 -1 3 C-0.67 2.01 -0.34 1.02 0 0 Z " fill="#D9D9D9" transform="translate(107,317)"/>
<path d="M0 0 C1.32 0 2.64 0 4 0 C4 1.32 4 2.64 4 4 C2.35 3.67 0.7 3.34 -1 3 C-0.67 2.01 -0.34 1.02 0 0 Z " fill="#D7D7D7" transform="translate(113,300)"/>
</svg>
